<?xml version="1.0" standalone="no"?><!DOCTYPE svg PUBLIC "-//W3C//DTD SVG 1.1//EN" "http://www.w3.org/Graphics/SVG/1.1/DTD/svg11.dtd"><svg width="100%" height="100%" viewBox="0 0 67 25" version="1.1" xmlns="http://www.w3.org/2000/svg" xmlns:xlink="http://www.w3.org/1999/xlink" xml:space="preserve" style="fill-rule:evenodd;clip-rule:evenodd;stroke-linejoin:round;stroke-miterlimit:1.41421;"><g><rect x="0.005" y="2.645" width="66.892" height="19.604" style="fill:#9cb6c3;fill-rule:nonzero;"/><path d="M0.776,21.478l65.35,0l0,-18.062l-65.35,0l0,18.062ZM66.897,22.249l-66.892,0l0,-19.604l66.892,0l0,19.604Z" style="fill:#876500;fill-rule:nonzero;"/><path d="M13.953,19.389l39.025,-0.013l0,5.043l-39.025,0.014l0,-5.044Z" style="fill:#fff;fill-rule:nonzero;"/><path d="M13.564,24.833l0,-5.822l39.804,-0.014l0,5.822l-39.804,0.014Z" style="fill:#876500;fill-rule:nonzero;"/><rect x="28.147" y="0.116" width="9.588" height="6.087" style="fill:#876500;fill-rule:nonzero;"/><path d="M55.553,15.319l0.133,-0.023l0.165,-0.033c0.022,0 0.044,0.011 0.22,-0.057l0.055,0.022l0.088,-0.08l0.133,-0.056c0.022,-0.012 0.088,-0.102 0.121,-0.17c0.022,-0.058 0.044,-0.114 0.044,-0.159l0.023,-0.24l0.044,-0.101l-0.034,-0.023c0.045,-0.239 0.056,-0.341 0.056,-0.444c0,-0.215 -0.022,-0.386 -0.066,-0.533c0.077,-0.137 0.087,-0.205 0.077,-0.409l-0.022,-0.057l0.077,-0.182l-0.077,0.011l-0.011,-0.113c0,-0.08 0.011,-0.114 0.043,-0.171l0.045,0.011l-0.077,-0.101l0.022,-0.148l-0.011,-0.523l0.021,-0.227l-0.021,-0.443l0.044,-0.08l-0.044,-0.568c0.011,-0.193 -0.022,-0.363 0.066,-0.489c-0.045,-0.022 -0.055,-0.045 -0.077,-0.101l0.066,-0.307l0.022,-0.114l-0.088,-0.068l0.032,-0.25l0.045,0.011l0.033,-0.17l-0.033,-0.125l-0.066,-0.023l0.011,-0.193l0.044,-0.4l-0.066,-0.454l0,-0.147c0.099,0.045 0.121,0.033 0.154,0.181c0.165,0.045 0.21,0.091 0.21,0.193c0,0.023 0,0.068 -0.011,0.113l0.121,-0.022l0,0.068l0.11,0.034l0.089,0.114c0.429,0.466 0.352,0.363 0.418,0.5l0.386,0.374l0,0.069c0.1,0.045 0.133,0.079 0.21,0.182c0.143,0.011 0.188,0.057 0.254,0.261c0.055,0.034 0.165,0.25 0.298,0.295l0.033,0.114l0.132,0.102l0.088,0.193l0.099,0.012c0.011,0.011 0.033,0.045 0,0.159c0.177,0.011 0.21,0.034 0.221,0.17l0.132,0.057l0.077,0.114c0.111,0.102 0.122,0.136 0.144,0.181c0.276,0.194 0.198,0.33 0.232,0.375l0.022,-0.091c0.154,0.114 0.209,0.171 0.408,0.455c0.231,0.171 0.341,0.261 0.396,0.34l0.254,0.364l0.75,0.875c0.033,0.046 0.221,0.284 0.221,0.319c0,0.033 0.055,0.101 0.143,0.147l0.011,0.125l0.132,0.102l0.022,-0.148l-0.011,-0.158l-0.044,-0.614l-0.011,-0.021l0.033,-0.261l0.033,-0.125l-0.044,-0.023c0.011,-0.022 0.011,-0.045 0.011,-0.045l-0.033,-0.216l0,-0.023c0,-0.034 0.011,-0.113 0.033,-0.205l0.033,-0.158c-0.011,-0.057 -0.077,-0.273 -0.033,-0.33l-0.033,-0.125l-0.022,-0.136l-0.022,-0.125c0,-0.011 0.011,-0.023 0.033,-0.046l0.011,-0.136l0.011,-0.239l-0.033,-0.716l0,-0.579l-0.011,-0.102l0.033,-0.102c-0.022,-0.046 -0.044,-0.069 -0.044,-0.091l0,-0.216l-0.066,-0.341l-0.011,-0.113c-0.298,-0.376 -0.386,-0.432 -0.904,-0.477l-0.144,-0.012l0.022,-0.171l0.133,0.011c0.243,0 0.298,0.013 0.419,0.092l0.286,-0.046l0.111,0.092c0.099,-0.035 0.198,-0.115 0.242,-0.115c0.066,0 0.111,0.057 0.265,0.091l0.033,-0.034l0.066,0.011l0.111,-0.034l0.044,-0.045l0.121,0.034l0.1,0.011c0.077,0 0.264,0 0.506,-0.045l0.111,-0.023l0.044,0.103l-0.055,0.057c-0.022,0.011 -0.188,0.045 -0.441,0.091c-0.441,0.068 -0.563,0.385 -0.563,1.42l0,0.022l0.011,0.273l0.045,0.341l-0.056,0.716l0.034,1.159l-0.023,0.148c0.011,0.022 0.023,0.045 0.023,0.056l-0.045,0.239l0.045,0.238l-0.045,0.159l0.045,0.012l0.01,0.216l-0.022,0.261l0.034,0.091l-0.022,0.272l0,0.068c0,0.024 0,0.046 0.044,0.217l-0.056,0.124l0.034,0.194l-0.012,0.82l0.012,0.102l0,0.283l-0.034,0.046l-0.099,-0.09l-0.044,0l-0.033,-0.103l-0.122,-0.204c0,0 -0.022,-0.182 -0.342,-0.375c-0.11,-0.148 -0.099,-0.136 -0.352,-0.409l-0.43,-0.557l0.033,-0.022l-0.022,-0.08l-0.044,0.057l-0.1,-0.102l-0.264,-0.33l-0.342,-0.284l0,-0.045l0.099,-0.068l-0.022,-0.057l-0.143,-0.011l-0.089,-0.274c-0.363,-0.034 -0.474,-0.386 -0.408,-0.442c-0.066,-0.08 -0.088,-0.103 -0.198,-0.16l-0.033,-0.091l-0.055,0.08l-0.078,0c-0.176,-0.216 -0.165,-0.193 -0.165,-0.296l0.11,0l-0.011,-0.113c-0.121,-0.046 -0.143,0.024 -0.188,-0.101l-0.055,0.046c0.055,0.045 0.067,0.068 0.067,0.124l0,0.023c-0.166,-0.034 -0.21,-0.171 -0.21,-0.331c0,-0.08 -0.187,-0.056 -0.198,-0.204c-0.022,-0.092 -0.033,-0.103 -0.143,-0.092c-0.067,-0.044 -0.077,-0.067 -0.088,-0.124l0.032,0l-0.032,-0.102c-0.177,-0.011 -0.232,-0.058 -0.299,-0.216l-0.265,-0.171l0.022,-0.079l-0.132,-0.114l-0.132,-0.261l-0.221,-0.125l-0.143,-0.182l0.011,-0.102l-0.044,0c-0.055,-0.068 -0.077,-0.079 -0.176,-0.091l-0.11,-0.261l-0.056,0.033l-0.11,-0.158l-0.055,0.022c-0.011,0.023 -0.011,0.046 -0.011,0.046l0.033,0.262l0,0.011c-0.044,0.215 -0.066,0.363 -0.066,0.375l0.055,0.134c0,0 0,0.012 -0.044,0.227c0.11,0.103 0.132,0.16 0.132,0.262l-0.088,0.034l-0.055,0.114l0.033,0.102l0,0.465l-0.033,0.012c0.055,0.125 0.066,0.181 0.066,0.295l-0.022,0.284l0.011,0.102l-0.022,0.125l0.011,0.114l0.044,0.273l-0.033,0.363l0.022,0.273l-0.055,0.261l0.033,0.773l0.011,0.147l-0.022,0.023l0.033,0.125l-0.033,0.034c0.033,0.045 0.055,0.091 0.055,0.125c0,0.011 -0.011,0.035 -0.022,0.057l0.066,0.091l-0.033,0.091c0,0.011 0.011,0.034 0.022,0.056l0.055,-0.011c0.022,0.035 0.034,0.057 0.034,0.068c0,0.012 0,0.035 0.121,0.136l0.154,0.035c0.297,0.068 0.364,0.091 0.397,0.091l0.132,-0.011l0.022,0c0.055,0 0.088,0.022 0.122,0.101l-0.045,0.024l0.011,0.091l-0.132,-0.023l-0.441,-0.035l-0.165,-0.033c-0.033,-0.012 -0.088,0 -0.154,0.056l-0.056,-0.068c-0.265,-0.011 -0.474,0.023 -0.562,0.057l-0.144,-0.08l-0.033,0.091c-0.176,-0.045 -0.199,-0.056 -0.199,-0.056l-0.297,0.045c0,0.011 -0.022,0 -0.044,-0.012c-0.055,0.046 -0.061,-0.008 -0.171,-0.008l-0.122,0.024l-0.027,-0.118Z" style="fill:#876500;fill-rule:nonzero;"/><path d="M3.264,15.296c0.45,-0.089 0.537,-0.105 0.711,-0.194c0.174,-0.075 0.334,-0.179 0.348,-0.239l0.059,-0.24l0.057,-0.179l0.015,-0.508c0,-0.045 0.014,-0.12 0.044,-0.225l-0.044,-0.044l0.044,-0.224l-0.015,-0.823l0.087,-0.39l0,-0.179l0.014,-0.449l-0.043,-0.194l0.043,-0.344l0.015,-0.15l0,-0.029l-0.029,-0.344l-0.014,-0.165l0.072,-0.074l-0.015,-0.254l-0.029,-0.165l0.044,-0.299l-0.044,-0.03l0,-0.134l-0.073,-0.06l0.073,-0.314c-0.014,-0.09 0.015,-0.209 -0.043,-0.329l0.116,-0.269l-0.116,-0.181c0.058,-0.119 0.072,-0.224 0.072,-0.284c0,-0.03 0,-0.059 -0.014,-0.134l-0.072,-0.09c0.057,-0.224 0.086,-0.314 0.086,-0.419c0,-0.075 -0.014,-0.149 -0.057,-0.299l0.043,-0.06c-0.029,-0.044 -0.029,-0.089 -0.029,-0.119c0,-0.03 0,-0.06 0.014,-0.105l-0.073,-0.075c0.03,-0.089 0.059,-0.179 0.059,-0.224l-0.014,-0.105l-0.16,0l-0.029,-0.134l-0.146,-0.134l-0.159,-0.09l-0.304,-0.09l-0.32,-0.015l-0.16,-0.015c-0.028,0 -0.072,0.016 -0.116,0.031c-0.014,-0.061 -0.029,-0.09 -0.029,-0.119c0,-0.045 0.029,-0.074 0.073,-0.149c0.058,0.015 0.116,0.015 0.145,0.029c0.174,0.03 0.334,0.06 0.407,0.06l0.058,0c0.217,-0.014 0.376,-0.03 0.449,-0.03c0.058,0 0.073,0.016 0.45,0.06c0.029,0 0.087,0 0.16,0.015c0.087,-0.119 0.247,0.015 0.275,0.015l0.523,-0.045l0.101,0.015l0.073,0.059l0.131,0.001c0.13,-0.075 0.282,-0.09 0.325,-0.09c0.073,0 0.486,0.09 0.515,0.105c0.058,-0.06 0.116,-0.09 0.159,-0.09c0.014,0 0.108,0.015 0.137,0.015l0.015,0.045l0.072,0c0.058,-0.06 0.088,-0.075 0.131,-0.075l0.666,0.015l0.29,-0.015l0.029,0.03c0.072,-0.015 0.194,-0.03 0.224,-0.03c0.072,-0.014 0.145,-0.03 0.16,-0.03c0.101,0 0.145,0.016 0.188,0.09l0.073,0l0.043,-0.06l0.523,0.03l0.101,-0.075c0.043,-0.015 0.073,-0.029 0.087,-0.029l0.202,0.029c0.014,0 0.044,-0.015 0.087,-0.044l0.043,0.222l-0.014,0.194l0.073,0.225l-0.102,0.134l0.131,0.195l-0.058,0.318l0.029,0.03l0.072,1.113l-0.101,0l-0.072,-0.104l-0.043,0.135l-0.073,-0.031l0.015,-0.209l0.087,0l0,-0.06l-0.058,-0.187c-0.044,-0.089 -0.073,-0.149 -0.073,-0.194c0,-0.015 0.029,-0.075 0.058,-0.134c-0.058,-0.075 -0.101,-0.134 -0.101,-0.18l-0.116,-0.497l-0.059,-0.045l-0.13,-0.179c-0.058,-0.075 -0.16,-0.135 -0.246,-0.15l-0.189,-0.015l-0.16,-0.075l-0.276,0.03l-0.101,-0.045l-0.268,0.03l-0.652,-0.015l-0.347,0.03l-0.456,0.015l-0.472,-0.06l-0.427,0c-0.029,0 -0.116,0.06 -0.246,0.15c-0.174,0.134 -0.189,0.194 -0.218,0.822l0,0.359l-0.116,0.134c0.073,0.09 0.102,0.211 0.102,0.285c0,0.06 -0.015,0.12 -0.058,0.285l-0.015,0.164c0.058,0.045 0.087,0.136 0.087,0.166c0,0.015 0,0.03 -0.014,0.044l-0.073,0l-0.015,0.135l0.102,0.03l-0.029,0.718l0.088,0.075l-0.073,0.135l0.073,0.074l-0.059,0.075c0.015,0.044 0.015,0.075 0.015,0.089c0,0.015 -0.015,0.06 -0.029,0.105c0.058,0.015 0.116,0.03 0.145,0.03c0.029,0 0.102,-0.03 0.174,-0.06c0.087,0.045 0.145,0.06 0.189,0.06c0.014,0 0.107,0 0.137,-0.015l0.13,-0.045c0.218,0.03 1.338,0.089 2.078,-0.045l0.253,0.075l0.044,-0.119l0.145,0l0.044,-0.09c0.218,-0.18 0.275,-0.344 0.304,-0.987c0.073,-0.03 0.086,-0.045 0.115,-0.045c0.044,0 0.087,0.03 0.16,0.06l-0.029,0.15c-0.044,0.209 -0.072,0.403 -0.072,0.478l0.014,0.104l0,0.24l-0.029,0.164l0,0.252l0.029,0.269l-0.058,0.059l0.044,0.15l0,0.314l0.101,0.838c-0.029,0.059 -0.073,0.089 -0.131,0.089c-0.058,0 -0.056,0 -0.129,-0.015l-0.044,-0.195l0,-0.269l0,-0.194l-0.014,-0.179l-0.247,-0.568c-0.087,0 -0.145,-0.015 -0.188,-0.03l-0.088,-0.06l-1.788,-0.045c-0.014,0 -0.072,-0.03 -0.144,-0.06l-0.312,0.075c-0.188,-0.015 -0.296,-0.045 -0.369,-0.06l-0.102,0.075l-0.115,-0.075l0,-0.075l-0.088,-0.014l-0.029,0.045c-0.043,-0.015 -0.087,-0.031 -0.116,-0.031c-0.087,0 -0.131,0.06 -0.174,0.225l0.218,0c-0.058,0.239 -0.073,0.314 -0.058,0.673l0.043,2.558l0.044,0.24l-0.029,0.15c0,0.029 -0.015,0.044 -0.015,0.074c0,0.478 0.608,0.867 1.145,0.867l0.203,-0.015l0.073,0.075l0.115,0l0.283,-0.015l0.043,-0.06l0.231,0.09l0.145,-0.03l0.029,-0.045c0.044,-0.015 0.073,-0.015 0.073,-0.015l0.5,0.03l0.267,-0.015l0.711,-0.074l0.334,-0.135c0.131,-0.045 0.232,-0.12 0.29,-0.195l0.16,-0.224c0.014,-0.015 0.058,-0.045 0.072,-0.149c0.203,-0.299 0.247,-0.479 0.348,-1.271l0.015,-0.164c0.043,-0.016 0.087,-0.016 0.102,-0.016c0.043,0 0.071,0.016 0.143,0.046l-0.392,2.629l-0.217,0l-1.159,0.03l-0.059,0c-0.246,0 -0.406,-0.015 -0.464,-0.045l-0.195,-0.045l-1.332,-0.015c-0.043,0 -0.102,-0.014 -0.174,-0.014l-0.073,-0.014c-0.057,0.029 -0.101,0.014 -0.13,0.014c-0.406,0 -0.507,0.014 -0.579,0.014c-0.102,0 -0.261,0.017 -0.421,-0.028c-0.029,-0.015 -0.087,-0.076 -0.174,-0.017l-0.377,0.06c-0.058,-0.104 -0.116,-0.103 -0.145,-0.103c-0.029,0 -0.073,-0.001 -0.131,0.058l-0.145,0.03l-0.566,-0.03c-0.015,0 -0.102,0.016 -0.217,0.045c-0.189,0.045 -0.494,0.09 -0.61,0.09c-0.058,0 -0.116,-0.045 -0.102,-0.075l0.015,-0.103l0.145,-0.015Z" style="fill:#876500;fill-rule:nonzero;"/><path d="M18.917,15.308l0.133,-0.012c0.661,-0.101 0.915,-0.306 0.915,-0.716l0,-0.068l-0.022,-0.318c0,-0.034 0.022,-0.091 0.077,-0.147c-0.044,-0.057 -0.055,-0.103 -0.055,-0.126c0,-0.034 0.033,-0.09 0.099,-0.147l-0.077,-0.148l0.022,-0.693l0,-0.784l0.088,-0.148l-0.099,-0.09l0.066,-0.08c-0.033,-0.046 -0.044,-0.091 -0.044,-0.114c0,-0.022 0,-0.045 0.011,-0.079l0.044,-0.023c-0.011,-0.114 -0.022,-0.147 -0.11,-0.284c0.11,-0.238 0.088,-0.398 0.088,-0.42l-0.022,-0.114l0.011,-0.091l-0.011,-0.386l-0.011,-0.443l-0.055,-0.148l0.055,0l0.011,-0.386l0.055,0c-0.066,-0.068 -0.088,-0.114 -0.088,-0.159l0,-0.103l0.011,-0.102l-0.011,-0.125l-0.088,-0.295c-0.089,-0.102 -0.122,-0.125 -0.265,-0.159l-0.022,-0.068l-0.132,-0.023c-0.143,-0.012 -0.143,-0.012 -0.209,-0.091l-0.034,0c-0.033,0 -0.055,0.034 -0.099,-0.001l-0.022,0.012l-0.144,0l0.011,-0.205c0.188,0.057 0.298,0.08 0.475,0.08l0.363,-0.011l0.166,0.011l0.022,0.045l0.11,0l0.022,-0.068c0.088,0.012 0.111,0.012 0.177,0.057l0.115,-0.057l0.467,0.057c0.099,0 0.121,-0.011 0.198,-0.079l0.254,0l0.056,0.034l0.044,-0.046l0.275,-0.011l0.232,-0.012l0.133,0.046l0.121,-0.034c0.121,0.091 0.22,0.068 0.408,0.102l0.022,-0.034l0.331,0.08l0.011,-0.001l0.121,0.023c0.232,0.034 0.287,0.023 0.298,0.17l0.132,0c0.023,0.057 0.078,0.104 0.133,0.115l0.033,0.125c0.132,0.045 0.211,0.09 0.222,0.125c0.033,0.079 0.033,0.091 0.088,0.102l0.088,0.216c0.066,0.045 0.077,0.068 0.077,0.125l0,0.08l-0.044,0.022l0.011,0.079l0.088,0.046l-0.055,0.057c0,-0.012 0.066,0.136 0.066,0.352c-0.044,0.057 -0.044,0.352 -0.066,0.5l-0.044,0.148l-0.209,0.34c0,0.069 -0.079,0.171 -0.167,0.24l-0.055,0l-0.011,-0.069l-0.011,0.194l-0.055,-0.011c-0.036,0.057 -0.448,0.304 -0.552,0.362c-0.386,0.216 -0.904,0.352 -1.279,0.352l-0.276,-0.023l-0.121,-0.011l0.022,-0.103l-0.067,0.046l-0.088,-0.057c-0.011,0.011 -0.011,0.034 -0.011,0.034c0,0.023 0.011,0.045 0.033,0.068l-0.077,-0.011c-0.011,-0.091 -0.022,-0.033 -0.088,-0.101l-0.012,-0.068c0.034,0.011 0.056,0.011 0.067,0.011c0.022,0 0.066,-0.023 0.121,-0.057c0.111,0.046 0.166,0.057 0.254,0.057c0.32,0 0.43,-0.034 0.552,-0.182c0.055,0.023 0.11,0.034 0.132,0.034c0.044,0 0.099,-0.011 0.176,-0.034c0.055,-0.057 0.077,-0.068 0.154,-0.068l0.121,-0.137l0.099,-0.09l0.066,0l0.089,-0.068l-0.067,-0.034l0.1,-0.091l0.132,-0.284l0.088,-0.08l-0.022,-0.033l0.077,-0.126l0.055,-0.114c-0.033,-0.079 0.011,-0.181 0.022,-0.329l0.088,-0.023l0,-0.102l-0.077,0l-0.022,-0.08c0,-0.045 0.022,-0.16 0.077,-0.239l-0.099,-0.046l0,-0.033c0,-0.035 0.022,-0.058 0.077,-0.069l-0.099,-0.079c-0.055,-0.228 -0.11,-0.353 -0.22,-0.455l-0.11,-0.148l-0.055,-0.102l-0.078,0.011c-0.033,-0.057 -0.044,-0.068 -0.11,-0.079l-0.044,-0.068l-0.429,-0.125l-0.011,-0.057l-0.133,0.023l-0.33,-0.012l-0.309,0.023l-0.376,0.046c-0.132,0.045 -0.209,0.159 -0.242,0.397l-0.011,0.125l-0.055,0.478l0.022,0.193l-0.011,0.091c-0.011,0.137 0.022,0.137 -0.066,0.353c0.044,0.044 0.077,0.09 0.077,0.124l-0.011,0.034l0,0.137c0.077,0.181 0.022,0.261 0.022,0.306c0,0.035 -0.022,0.068 -0.055,0.114l0.055,0.034l-0.044,0.125l0.022,0.159l0,0.795c0,0.068 -0.011,0.137 -0.066,0.262l0.055,0.09l-0.033,0.069l0.055,0.318l-0.022,0.091l0.011,0.125l-0.022,0.102l-0.066,-0.011l0.077,0.17l0.055,0.114c-0.055,0.227 -0.066,0.363 -0.066,0.534c0,0.454 0.044,0.84 0.143,1.17l0.066,0.034l0,0.08l0.154,0.079l0.089,0.023l0.11,0.057l0.011,0.034l0.044,-0.034l0.034,0.034l0.055,-0.022l0.055,0.011l0.022,0.022l0.243,0.023l0.022,0.08l0.055,-0.012l0.022,-0.056l0.243,0.033c0.022,-0.022 0.033,-0.022 0.055,-0.022l0.022,0l0.011,0.068l-0.055,0.022c0.022,0.046 0.044,0.046 0.044,0.069l-0.011,0.057l-1.247,-0.102c-0.011,-0.035 0.011,-0.103 -0.121,-0.012l-0.538,0l-0.045,-0.012l-0.099,0.012l-0.121,0.034l-0.155,-0.011l-0.242,0.011l-0.11,-0.011l0,-0.035l-0.088,-0.022l0.033,0.068l-0.11,0.034l-0.033,-0.056l-0.056,0.068l-0.287,0.023l-0.055,-0.171Z" style="fill:#876500;fill-rule:nonzero;"/><path d="M10.786,15.285l0.176,-0.023l0.1,0.023l0.11,-0.045l0.043,0c0.044,-0.069 0.088,-0.08 0.199,-0.069l0.011,-0.046c0.11,-0.045 0.132,-0.068 0.143,-0.17l0.089,0.012l0.187,-0.205c0.132,-0.148 0.242,-0.261 0.287,-0.352c0.187,-0.33 0.209,-0.353 0.374,-0.409c0,-0.136 0.221,-0.171 0.42,-0.625l0.11,0c0,-0.125 0.011,-0.159 0.066,-0.227c0.089,-0.091 0.122,-0.16 0.133,-0.171l0.705,-0.829l0.11,-0.171l0.21,-0.216l0.066,-0.101l-0.066,-0.114l-0.353,-0.364l0.001,-0.193l-0.233,-0.148l-0.231,-0.329c-0.067,-0.091 -0.078,-0.114 -0.078,-0.228c-0.331,-0.227 -0.353,-0.249 -0.463,-0.465c-0.022,-0.148 -0.044,-0.182 -0.21,-0.239l-0.363,-0.625c-0.033,-0.363 -0.166,-0.318 -0.364,-0.374c-0.045,-0.103 -0.133,-0.125 -0.21,-0.16l-0.11,-0.113l-0.1,-0.012c-0.077,-0.045 -0.044,0.012 -0.121,-0.056l-0.208,0l-0.011,-0.194l0.066,-0.034l0.353,0.068l0.055,-0.023l0.055,0.114l0.077,-0.114c0.088,0.023 0.11,0.035 0.375,0.035c0.089,0.022 0.155,0.033 0.199,0.033l0.143,0l0.122,-0.022l0.298,0.08c0.055,-0.058 0.11,-0.091 0.143,-0.091c0.011,0 0.033,0 0.055,0.011l0.022,0.068l0.099,-0.034l0.011,-0.069l0.254,0.012c0.143,0 0.209,-0.012 0.364,-0.057l0.044,0.171l-0.033,0c-0.033,0 -0.044,0.011 -0.077,0.034c-0.033,-0.011 -0.056,-0.011 -0.067,-0.011c-0.022,0 -0.021,0.011 -0.076,0.034l-0.044,-0.046l-0.033,0.08c-0.287,0.011 -0.441,0.159 -0.441,0.375c0,0.045 0.011,0.091 0.033,0.136l0.1,0.148l0.044,0.113l0.11,0.023c0.111,0.25 0.132,0.307 0.287,0.523l0,0.102c0.099,0 0.143,0.034 0.143,0.08c0,0.136 0.187,0.261 0.243,0.34l0.187,0.251l0.155,0.238l0.254,0.295l0.055,0c0,0.171 -0.09,0.125 0.064,0.397l0.033,-0.056l0.077,-0.045l0.11,-0.205l0.143,-0.124l0.188,-0.16l-0.011,-0.113c0.132,-0.114 0.154,-0.159 0.165,-0.341l0.1,0l0.32,-0.443l0.099,-0.148c0.11,-0.091 0.132,-0.125 0.21,-0.262c0.055,-0.045 0.066,-0.101 0.066,-0.113l0.286,-0.511c0.022,-0.045 0.033,-0.103 0.033,-0.16c0,-0.238 -0.209,-0.363 -0.672,-0.374l-0.022,-0.023l-0.088,0.012c-0.022,-0.057 -0.033,-0.023 -0.033,-0.046c0,-0.034 0.011,-0.114 0.022,-0.159l0.606,0.033c0.022,0.069 0.045,0.08 0.111,0.092c0.055,-0.068 0.077,-0.092 0.143,-0.092l0.022,0l0.011,0.092l0.055,0.023l0.056,-0.115c0.066,0 0.088,0.012 0.132,0.069l0.066,-0.034l0.408,-0.011l0.805,-0.035l0.078,0.011c0,0.115 -0.012,0.126 -0.056,0.194l-0.11,-0.011l-0.033,0c-0.144,0 -0.393,0.125 -0.559,0.261l-0.11,0.159c-0.11,0.034 -0.121,0.046 -0.243,0.239l-0.165,0.215l-0.078,0.103l-0.011,0.113l-0.198,0.194c-0.186,0.171 -0.197,0.16 -0.452,0.602c-0.055,0.103 -0.11,0.171 -0.165,0.216l-0.089,0.068l-0.265,0.375l-0.11,0.08l-0.044,0.136l-0.088,0.011l-0.044,0.102l-0.078,0.08c-0.077,0.159 -0.121,0.182 -0.165,0.204c0,0.035 -0.045,0.068 -0.045,0.091c0,0.069 -0.01,0.091 -0.043,0.136l0.361,0.398c0.077,0.239 0.144,0.239 0.155,0.239c0.022,0 0.055,0.011 0.099,0.034l-0.066,0.102l0.033,0c0.044,0.08 0.077,0.125 0.111,0.125c0.088,0 0.055,0.034 0.121,0.159c0.088,0.068 -0.001,0 0.308,0.319c0.077,0.113 0.144,0.147 0.177,0.26l0.088,0.024l0.044,0.147c0.077,0.034 0.132,0.08 0.165,0.113l0.044,0.103l0.365,0.454l0.32,0.5l0.099,0.034l0.055,0.194l0.034,0.011c0.032,-0.034 0.055,-0.057 0.066,-0.057c0.033,0 0.066,0.034 0.066,0.08c0,0.022 -0.011,0.045 -0.022,0.079l0.088,0.091l0.099,0.034l0.143,0.125c0.055,0.035 0.12,0.057 0.264,0.068l0.132,0.012l0,0.205l-0.198,-0.057c-0.034,0.034 -0.056,0.057 -0.078,0.057c-0.011,0 -0.033,-0.012 -0.055,-0.023l-0.022,-0.057c-0.011,-0.012 -0.033,-0.012 -0.044,-0.012c-0.022,0 -0.044,0.012 -0.067,0.058l-0.055,0l-0.121,-0.012l-0.606,-0.068l-0.187,0l-0.177,0.034l-0.696,0.023l-0.374,0.045l-0.132,0.012l-0.044,-0.182c0.65,-0.046 0.914,-0.148 0.914,-0.398c0,-0.273 -0.243,-0.602 -0.453,-0.773l-0.033,-0.113l-0.143,-0.171l-0.099,-0.148l-0.111,-0.08l-0.077,-0.101l0.066,-0.057c-0.231,-0.148 -0.22,-0.194 -0.231,-0.364c-0.044,-0.045 -0.044,-0.068 -0.044,-0.136c-0.044,-0.023 -0.055,-0.034 -0.077,-0.079l-0.111,0.022l-0.154,-0.273l-0.066,-0.045l-0.132,-0.171l-0.11,-0.102l-0.044,-0.102l-0.088,-0.08l-0.012,-0.102l-0.066,-0.102l-0.062,0.091c-0.209,0.261 -0.176,0.25 -0.275,0.261c-0.011,0.114 -0.023,0.136 -0.122,0.193c-0.033,0.08 -0.033,0.091 -0.199,0.284l-0.077,0.103l-0.099,0.215c-0.121,0.092 -0.198,0.171 -0.242,0.217l-0.199,0.284l-0.165,0.17c-0.044,0.125 -0.066,0.17 -0.199,0.295c0,-0.034 -0.132,0.227 -0.221,0.353c-0.132,0.193 -0.209,0.397 -0.209,0.533c0,0.114 0.099,0.239 0.221,0.262l0.197,0.046l0.141,0.045l0.011,-0.034c0.055,0.034 0.088,0.045 0.121,0.045c0.011,0 0.044,-0.011 0.077,-0.023c0.11,0.012 0.166,-0.023 0.166,0.045c0,0.057 -0.045,0.149 -0.111,0.149c-0.033,0 -0.066,-0.023 -0.121,-0.08l-0.022,0.046l-0.033,0c-0.022,0 -0.044,-0.012 -0.077,-0.035c-0.055,0.023 -0.088,0.035 -0.121,0.035c-0.044,0 -0.088,-0.012 -0.254,0l-0.066,-0.08l-0.122,0.057l-0.044,-0.057c-0.143,0.023 -0.198,0.034 -0.253,0.034c-0.044,0 -0.078,-0.011 -0.144,-0.057l-0.188,0.023c-0.154,0.057 -0.187,0.068 -0.242,0.068c-0.022,0 -0.055,-0.011 -0.099,-0.045c-0.132,0.057 -0.209,0.068 -0.408,0.057l-0.088,0.011l-0.133,0.012c-0.044,0.011 -0.088,0.022 -0.099,0.022c-0.011,0 -0.044,-0.011 -0.077,-0.034l-0.011,-0.159Z" style="fill:#876500;fill-rule:nonzero;"/><path d="M24.995,7.99l0.132,0.012l0.618,0.044l0.275,0.035l0.155,-0.035c0.077,0.069 0.263,0.08 0.352,0.08l0.022,-0.057c0.033,-0.011 0.055,-0.011 0.077,-0.011c0.033,0 0.099,0.023 0.176,0.068l0.011,-0.034l0.971,-0.102l0.022,0.206l-0.132,0.022l-0.221,0.023c-0.32,0.045 -0.375,0.079 -0.497,0.261l-0.055,0.023l-0.055,0.171l-0.066,0.647l0,0.057l0.066,0.125l-0.055,0.159c0.044,0.102 -0.055,0.011 0.033,0.693l-0.066,0.091l0.055,0.136l-0.066,0.5l-0.033,0.103l0.099,0.033l0,0.307l-0.132,0.125l0.044,0.056l0.044,0l0.055,0.069l-0.022,0.079l0.022,0.262l-0.022,0.318l0.033,0.204l0,0.046c0,0.068 -0.011,0.114 -0.055,0.295c0.044,0.058 0.055,0 0.055,0.421l-0.044,0.079l-0.066,-0.022l0,0.068l0.088,0.045l-0.022,0.125l0.033,0.034l-0.022,0.08l-0.088,-0.012c-0.022,0.035 -0.033,0.068 -0.033,0.092c0,0.022 0.011,0.056 0.033,0.09c0.099,0.023 0.121,0.034 0.143,0.148c-0.055,0.068 -0.033,0.102 0.011,0.33l-0.011,0.091c0,0.181 0.254,0.374 0.497,0.408l0.455,0.045l0.311,0.023l0.254,-0.023c0.132,0.011 0.355,0.023 0.432,0.069c0.066,-0.046 0.312,-0.08 0.345,-0.08c0.033,0 0.257,0.011 0.311,0.045l0.045,-0.045l0.099,0.022l0.612,-0.068l0.367,-0.011c0.165,-0.114 0.243,-0.148 0.452,-0.216l0,-0.057l0.11,-0.033l-0.022,-0.069c0.121,-0.147 0.143,-0.227 0.221,-0.625l0.032,-0.148c0.056,-0.022 0.067,-0.034 0.056,-0.102l-0.033,-0.023l0.066,-0.068c-0.033,-0.033 -0.055,-0.057 -0.055,-0.079c0,-0.023 0.011,-0.057 0.022,-0.102l0.022,-0.125l0.176,0.022l0.022,0.068l-0.066,0.467l0,0.101l-0.044,0.296l-0.022,0.125l-0.055,0.011l0,0.068l0.055,0.011l-0.033,0.125l-0.044,0.421l-0.078,0.251l-0.021,0.182l-0.177,-0.012l-0.452,0.012l-0.411,-0.034c-0.187,-0.057 -1.136,-0.08 -1.434,-0.08c-0.341,0 -1.232,0.011 -1.596,0.046l-0.022,0c-0.044,0 -0.088,-0.012 -0.176,-0.057l0,0.001l-0.689,-0.035c-0.088,0.079 -0.159,0.079 -0.369,0.091l-0.264,0.023l-0.11,-0.058c-0.066,0 -0.11,0.012 -0.133,0.023l-0.066,0.046l-0.143,0l-0.089,0.045l-0.077,-0.091l0,0.046c0,0.09 -0.033,0.102 -0.143,0.079l-0.022,-0.17c0.264,-0.012 0.452,-0.068 0.673,-0.182c0.22,-0.125 0.286,-0.25 0.319,-0.591l0.011,-0.125l0.033,0c-0.033,-0.057 -0.055,-0.09 -0.055,-0.114c0,-0.023 0.011,-0.068 0.022,-0.136c0.022,-0.045 0.022,-0.125 0.022,-0.216l0.011,-0.159l-0.011,-0.205c0.011,-0.045 -0.022,-0.102 -0.066,-0.181l0.066,-0.046l0,-0.511c0,-0.091 -0.011,-0.125 -0.011,-0.205c0,-0.056 0,-0.113 0.033,-0.227l-0.044,-0.079l0.066,-0.034c-0.077,-0.148 -0.066,-0.5 -0.011,-0.955l-0.022,-0.045l-0.077,-0.136c0.044,-0.171 0.055,-0.239 0.055,-0.33c0,-0.057 -0.011,-0.113 -0.044,-0.216l0.044,-0.057l-0.022,-0.045l0.022,-0.182l-0.022,-0.09l0.044,-0.08l-0.044,-0.035l0,-0.227l0,-0.193l0.022,-0.181l-0.066,-0.648c-0.055,-0.409 -0.066,-0.42 -0.22,-0.523c-0.188,-0.102 -0.442,-0.159 -0.717,-0.159l0.011,-0.228Z" style="fill:#876500;fill-rule:nonzero;"/><path d="M29.979,10.444l0.055,0.11c0.022,0.055 0.033,0.1 0.033,0.122c0,0.021 -0.011,0.044 -0.022,0.088l0.022,0.066l0.111,0l-0.01,0.155l-0.067,0.011c0.099,0.286 0.109,0.464 0.175,0.563l0.32,0.474l0.178,0.198l0.098,0.011c0.231,0.166 0.352,0.273 0.441,0.284l0.462,0.1l0.077,0.01l0.022,0c0.309,0 0.64,-0.144 0.904,-0.299l0.055,0.011l0.045,-0.066c0.088,-0.011 0.11,-0.051 0.143,-0.128l0.166,-0.079l-0.022,-0.022l0.066,-0.099l0.209,-0.397l0.165,-0.352l0.044,-0.088l-0.022,-0.154l0.044,-0.1c0.022,-0.033 0.022,-0.055 0.022,-0.066l-0.011,-0.254c0,-0.011 0,-0.033 0.011,-0.055l0.044,0l0.011,-0.055c-0.088,-0.144 -0.099,-0.177 -0.088,-0.287l0.056,-0.033l-0.034,-0.165c-0.132,-0.618 -0.176,-0.884 -0.33,-1.027c-0.087,-0.077 -0.099,-0.099 -0.099,-0.154l0,-0.022l-0.055,0l-0.199,-0.21l-0.043,0.011c-0.056,-0.088 -0.078,-0.076 -0.2,-0.131c-0.198,-0.099 -0.231,-0.196 -0.606,-0.24l-0.132,-0.023l-0.044,-0.077l-0.089,0.044l-0.154,-0.032l-0.209,0.088l-0.089,-0.045l-0.053,0.056c-0.046,-0.011 -0.09,0 -0.101,0.011l-0.066,0.033l-0.11,0.051c-0.021,0.011 -0.044,0.034 -0.066,0.066l-0.044,0c-0.089,0 -0.065,0.011 -0.219,0.144l-0.2,0.166l-0.066,0.099l-0.099,-0.011c-0.111,0.143 -0.044,0.165 -0.132,0.22l0.033,0.088c-0.132,0.166 -0.166,0.288 -0.221,0.553l-0.033,0.198l-0.077,-0.011l-0.022,-0.044l-0.055,0.055c0.099,0.033 0.154,0.088 0.165,0.132c0,0 -0.011,0.022 -0.022,0.067c-0.021,0.033 -0.033,0.088 -0.033,0.143c0,0.033 -0.055,0.121 0,0.276l-0.033,0.022ZM29.36,9.253c0.021,-0.077 0.099,-0.132 0.253,-0.287c0.066,-0.132 0.099,-0.177 0.254,-0.309c0.298,-0.264 0.452,-0.385 0.595,-0.44l0.431,-0.177c0.177,-0.077 0.309,-0.121 0.364,-0.121c0.011,0 0.022,0.01 0.055,0.01c0.022,0 0.045,0.012 0.089,0.023l0.01,-0.067l0.123,0.011l0.208,0.033l0.033,-0.044c0.033,-0.011 0.056,-0.011 0.056,-0.011l0.376,0.045c0.01,0 0.021,0 0.043,-0.011c0.055,-0.012 0.099,-0.012 0.111,-0.012c0.131,0 0.407,0.056 0.694,0.166l0.277,0.143l0.352,0.221l0.232,0.198l0.099,0.033l0,0.144l0.077,0.044l-0.033,0.088l0.11,-0.011l0.189,0.232l0.166,0.452c0.021,0.066 0.032,0.11 0.032,0.143c0,0.022 -0.022,0.11 -0.055,0.187c0.033,0.044 0.088,0.133 0,0.144c-0.054,0.033 0.024,0.044 0.024,0.121l0.12,0.033l0.011,0.033c-0.088,0.034 -0.199,0.044 -0.255,0.111c-0.021,0.022 -0.043,0.044 -0.077,0.088l0.089,-0.011l0,0.044c0,0.044 -0.023,0.077 -0.089,0.11l0.034,0.045l-0.012,0.055l0.034,0.044c0.077,-0.088 0.088,-0.11 0.099,-0.221l0.022,-0.132l0.1,0.022l0,0.11c0,0.122 -0.034,0.331 -0.1,0.563c-0.033,0.121 -0.044,0.143 -0.143,0.264l-0.034,0.11l-0.044,-0.011l0.034,0.089l-0.189,0.077l0.099,0.011l-0.11,0.187l-0.276,0.332l-0.043,0.077c-0.034,0.033 -0.034,0.055 -0.199,0.121c-0.032,0.066 -0.055,0.078 -0.109,0.099l-0.034,-0.044c-0.131,0.011 -0.198,0.044 -0.232,0.177c-0.055,0.033 -0.1,0.055 -0.133,0.055c-0.275,0 -0.32,0.044 -0.342,0.132l-0.132,-0.011c-0.022,0.033 -0.055,0.055 -0.066,0.066l-0.165,0.033l-0.288,0.044l-0.375,-0.011l-0.165,0.011c-0.055,0 -0.11,-0.022 -0.21,-0.088l0,0.044l-0.077,0.011l-0.055,-0.044c-0.198,0 -0.288,-0.011 -0.365,-0.099l-0.198,-0.022l-0.099,-0.066l-0.132,-0.044l-0.111,-0.099l-0.165,-0.022l-0.011,-0.078l-0.111,-0.088c-0.165,-0.099 -0.243,-0.132 -0.265,-0.232c-0.188,-0.11 -0.375,-0.353 -0.452,-0.596l-0.066,-0.209c0,-0.011 -0.021,-0.044 -0.044,-0.099l0.033,-0.066l-0.044,0.011l-0.011,-0.121l-0.045,-0.21l0.045,-0.089l0.034,0c-0.123,-0.176 -0.123,-0.176 -0.123,-0.253c0,-0.243 0.022,-0.452 0.067,-0.574l0.121,-0.352l0,-0.099c0.066,-0.033 0.066,-0.033 0.089,-0.166" style="fill:#876500;fill-rule:nonzero;"/><path d="M38.046,11.687l-0.052,-0.056l-0.024,-0.029l0.055,-0.04l0.167,0.011l0.322,-0.09l0.099,0l0.154,-0.118c0.077,-0.045 0.198,-0.045 0.198,-0.091c0,-0.068 0.045,-0.102 0.155,-0.148l0.044,0.091l0.044,-0.091l0.033,0c0.033,0 0.044,0 0.078,-0.034l-0.045,-0.091c0.21,-0.192 0.264,-0.352 0.342,-0.59c0.043,-0.126 0.099,-0.33 0.099,-0.398c0,-0.023 -0.022,-0.148 -0.056,-0.25l-0.032,-0.161l0.055,-0.011l-0.023,-0.273l-0.077,-0.101l-0.12,-0.273c-0.155,-0.262 -0.805,-0.591 -1.18,-0.591c-0.044,0 -0.088,0.034 -0.144,0.091l-0.044,-0.079l-0.154,-0.012l-0.132,-0.012l-0.088,0c-0.342,0 -0.618,0.206 -0.618,0.41l0.011,0.261l-0.022,0.239l0.011,0.068l-0.099,0.023l0.132,0.125l-0.066,0.341l0,0.204l-0.011,0.58l0.011,0.068l0.033,0.227l-0.033,0.239l-0.011,0.057c-0.011,0.045 -0.011,0.079 -0.011,0.124l0.011,0.239l0.02,0.131l0.014,0.085c-0.007,-0.036 -0.008,0.064 -0.041,0.064c-0.011,0 -0.004,0.073 -0.037,0.095c0.022,0.057 0.033,0.102 0.033,0.137l-0.022,0.159l-0.011,0.045l0.044,0.796l0,0.261l0.066,0.034c-0.033,0.057 -0.077,0.068 -0.055,0.5l0.033,0.669c0.022,0.364 0.243,0.66 0.519,0.694l0.32,0.046l0.121,0.033l0.099,-0.033l0.033,0.068l-0.033,0.012l0.022,0.068l-0.11,0.033l-0.662,-0.068l-0.298,0.023c-0.044,0 -0.088,-0.023 -0.165,-0.056c-0.044,0.022 -0.066,0.022 -0.11,0.022l-0.055,0c-0.022,0 -0.264,0 -0.32,0.046l0,-0.115l-0.066,-0.01l-0.044,0.022l-0.033,0.103l-0.165,-0.046l-0.033,0.079l-0.067,0.012l-0.264,-0.057l-0.066,0.012c-0.188,0.045 -0.343,0.068 -0.464,0.068l-0.066,0l-0.011,-0.171l0.121,-0.022c0.519,-0.08 0.784,-0.205 0.806,-0.376l0.022,-0.204l0.044,-0.114l-0.011,-0.181c0,-0.035 0.011,-0.08 0.033,-0.148l0.077,-0.262l-0.077,-0.852l0.011,-0.114l0.011,-0.136l-0.022,-0.216c0.044,-0.136 0.099,-0.192 -0.011,-0.204l-0.011,-0.182c0,-0.114 0.011,-0.148 0.099,-0.205c-0.044,-0.772 -0.077,-0.795 -0.022,-0.863l-0.011,-0.114l-0.077,-0.124l0.077,-0.023l-0.099,-0.364l0.066,-0.011l0.033,-0.125c0.033,-0.227 0.066,-0.284 -0.033,-0.296l-0.011,-0.159l0.088,-0.022l-0.011,-0.057c0,-0.194 -0.066,-0.307 -0.066,-0.454l-0.055,-0.137c0.022,-0.102 0.033,-0.159 0.033,-0.216c0,-0.318 -0.099,-0.579 -0.276,-0.761l-0.088,-0.011l-0.022,-0.058l-0.111,0l-0.088,0.012c-0.033,0 -0.11,-0.023 -0.188,-0.057c-0.099,-0.034 -0.132,-0.045 -0.253,-0.056l0.033,-0.126l0.187,0l0.85,0.091l0.165,-0.022c0.188,-0.023 0.595,-0.046 0.782,-0.046l0.199,0c0.066,0 0.121,0 0.154,-0.011l0.144,-0.046l0.132,0.034l0.144,-0.011c0.033,0 0.088,0.011 0.154,0.045c0.265,-0.045 0.265,-0.045 0.364,0.012c0.044,-0.034 0.066,-0.034 0.088,-0.034c0.099,0 0.132,0 0.21,0.045c0.021,-0.023 0.054,-0.034 0.066,-0.034c0.022,0 0.066,0.023 0.11,0.046c0.066,0.011 0.121,0.011 0.155,0.011l0.066,0c0.066,0 0.155,0.034 0.199,0.113c0.044,-0.023 0.077,-0.034 0.099,-0.034c0.033,0 0.099,0.046 0.176,0.114l0.022,0.034c0.099,0 0.178,0.057 0.377,0.228l0.143,0.125l0.111,0.171l0.154,0.227c0.078,0.136 0.122,0.215 0.122,0.283c0,0.023 -0.011,0.057 -0.033,0.114c0.066,0.034 0.077,0.056 0.077,0.091l0,0.045l-0.055,0.011l0,0.08l0.066,0.045l-0.033,0.114l-0.011,0.364l-0.133,0.216l-0.088,0.204c-0.022,0.023 -0.055,0.046 -0.133,0.273l-0.408,0.363c-0.221,0.182 -0.288,0.193 -0.475,0.216l-0.022,0.068l-0.166,0.023c-0.111,0.023 -0.104,0.034 -0.181,0.091l0.133,0.091l-0.016,0.113c0.144,0.148 0.282,0.441 0.26,0.509l0.127,0.022l0.039,0.33l0.333,0.474l0.205,0.193l0.055,0.25l0.649,1.042l0.238,0.443l0.468,0.674l0.055,0l0.044,0.114c0.033,0.125 0.033,0.136 0.122,0.216c-0.034,0.034 -0.044,0.046 -0.078,0.046l-0.088,-0.126c0,0.08 0.011,0.126 0.033,0.148l0.067,0.045c0.022,0.023 -0.013,-0.049 0.009,0.008l0.044,-0.045l0.033,0.034l0.077,-0.012c0.044,0.114 0.077,0.137 0.155,0.148l0.629,0.729c0.298,0.205 0.497,0.33 0.696,0.33l0.129,0.005l0.014,0.09l-0.099,0.04l-0.31,0.011l-0.111,0c-0.077,0 -0.188,-0.011 -0.398,-0.045l-0.088,0.057l-0.099,-0.08l-0.342,-0.08l-0.287,-0.169l-0.121,-0.058c-0.022,-0.057 -0.045,-0.044 -0.188,-0.192l-0.43,-0.501l0,-0.058l-0.055,-0.011c-0.067,-0.09 -0.089,-0.125 -0.111,-0.227c-0.121,-0.091 -0.156,-0.083 -0.233,-0.275l0.042,-0.035l-0.138,-0.13l-0.298,-0.467l-0.013,-0.091l-0.089,-0.072l-0.422,-0.867l-0.201,-0.197l-0.253,-0.472l0.005,-0.076c0,0 -0.07,-0.039 -0.096,-0.084c-0.122,-0.216 -0.335,-0.592 -0.381,-0.762c-0.11,-0.09 -0.121,-0.124 -0.165,-0.317l-0.287,-0.555c-0.022,-0.102 -0.089,-0.136 -0.155,-0.181l-0.036,-0.018Z" style="fill:#876500;fill-rule:nonzero;"/><path d="M41.802,15.3c0.342,-0.068 0.409,-0.08 0.541,-0.148c0.132,-0.057 0.253,-0.136 0.264,-0.182l0.044,-0.181l0.044,-0.137l0.011,-0.386c0,-0.034 0.011,-0.091 0.033,-0.17l-0.033,-0.035l0.033,-0.17l-0.011,-0.625l0.066,-0.261l0,-0.137l0.012,-0.34l-0.034,-0.148l0.034,-0.261l0.011,-0.114l0,-0.023l-0.023,-0.261l-0.01,-0.125l0.055,-0.057l-0.011,-0.193l-0.022,-0.125l0.033,-0.228l-0.033,-0.022l0,-0.102l-0.056,-0.045l0.056,-0.239c-0.012,-0.068 0.011,-0.16 -0.034,-0.25l0.089,-0.205l-0.089,-0.102c0.045,-0.091 0.056,-0.171 0.056,-0.216c0,-0.023 0,-0.046 -0.011,-0.102l-0.055,-0.069c0.044,-0.17 0.066,-0.238 0.066,-0.317c0,-0.057 -0.011,-0.115 -0.044,-0.227l0.033,-0.046c-0.023,-0.034 -0.023,-0.068 -0.023,-0.091c0,-0.023 0,-0.046 0.012,-0.08l-0.056,-0.056c0.022,-0.068 0.044,-0.137 0.044,-0.171l-0.01,-0.079l-0.122,0l-0.022,-0.102l-0.11,-0.103l-0.121,-0.068l-0.232,-0.068l-0.242,-0.012l-0.122,-0.045c-0.022,0 -0.055,0.011 -0.088,0.022c-0.011,-0.045 -0.022,-0.022 -0.022,-0.045c0,-0.034 0.022,-0.091 0.055,-0.148c0.044,0.011 0.088,0.011 0.11,0.023c0.133,0.023 0.254,0.045 0.309,0.045l0.045,0c0.165,-0.011 0.286,-0.022 0.341,-0.022c0.044,0 0.055,0.011 0.342,0.045c0.022,0 0.066,0 0.121,0.012c0.066,-0.092 0.397,0.011 0.418,0.011l0.398,-0.034l0.077,0.011l0.055,0.08l0.1,-0.035c0.099,-0.056 0.244,-0.068 0.277,-0.068c0.055,0 0.309,0.068 0.331,0.08c0.044,-0.045 0.178,-0.068 0.211,-0.068c0.011,0 0.023,0.011 0.045,0.011l0.01,0.034l0.056,0c0.044,-0.045 0.066,-0.057 0.099,-0.057l0.477,0.012l0.222,-0.012l0.022,0.023c0.055,-0.011 0.088,-0.023 0.111,-0.023c0.054,-0.011 0.11,-0.022 0.121,-0.022c0.077,0 0.11,0.011 0.143,0.068l0.055,0l0.033,-0.046l0.397,0.023l0.077,-0.056c0.034,-0.012 0.056,-0.024 0.067,-0.024l0.187,0.024c0.011,0 0.033,-0.012 0.066,-0.035l0.033,0.16l-0.011,0.181l0.056,0.171l-0.078,0.102l0.099,0.148l-0.044,0.182l0.023,0.022l0.055,0.807l-0.078,0l-0.054,-0.06l-0.067,0.083l-0.055,-0.023l0.011,-0.159l0.066,0l0,-0.046l-0.044,-0.102c-0.033,-0.068 -0.055,-0.114 -0.055,-0.147c0,-0.012 0.022,-0.057 0.044,-0.103c-0.044,-0.056 -0.077,-0.102 -0.077,-0.136l-0.088,-0.318l-0.044,-0.034l-0.1,-0.136c-0.044,-0.057 -0.121,-0.103 -0.188,-0.114l-0.143,-0.011l-0.121,-0.058l-0.209,0.023l-0.077,-0.034l-0.144,0.023l-0.589,-0.012l-0.143,0.023l-0.377,0.012l-0.298,-0.046l-0.355,0c-0.021,0 -0.088,0.046 -0.187,0.114c-0.133,0.102 -0.143,0.148 -0.166,0.625l0,0.272l-0.088,0.103c0.056,0.068 0.078,0.124 0.078,0.181c0,0.046 -0.012,0.137 -0.045,0.262l-0.011,0.11c0.044,0.034 0.066,0.068 0.066,0.091c0,0.011 0,0.023 -0.01,0.034l-0.056,0l-0.011,0.102l0.077,0.023l-0.022,0.546l0.067,0.056l-0.055,0.102l0.055,0.057l-0.045,0.057c0.011,0.034 0.011,0.057 0.011,0.068c0,0.012 -0.011,0.046 -0.021,0.08c0.043,0.011 0.088,0.022 0.11,0.022c0.022,0 0.077,-0.022 0.132,-0.045c0.066,0.034 0.111,0.045 0.143,0.045c0.012,0 0.023,0 0.045,-0.011l0.099,-0.034c0.165,0.023 1.077,0.068 1.64,-0.034l0.133,0.057l0.033,-0.091l0.11,0l0.033,-0.068c0.165,-0.136 0.209,-0.261 0.231,-0.75c0.055,-0.023 0.055,-0.034 0.077,-0.034c0.033,0 0.111,0.022 0.166,0.045l-0.022,0.114c-0.033,0.159 -0.055,0.307 -0.055,0.364l0.011,0.079l0,0.182l-0.022,0.125l0,0.199l0.022,0.205l-0.044,0.045l0.033,0.114l0,0.239l0.077,0.636c-0.022,0.045 -0.055,0.068 -0.099,0.068c-0.045,0 -0.078,0 -0.133,-0.011l-0.033,-0.148l0,-0.205l0,-0.148l-0.011,-0.136l-0.187,-0.432c-0.066,0 -0.11,-0.011 -0.143,-0.022l-0.066,-0.046l-1.33,-0.033c-0.012,0 -0.055,-0.023 -0.111,-0.046l-0.176,0.057c-0.143,-0.011 -0.255,-0.034 -0.31,-0.046l-0.078,0.057l-0.088,-0.057l0,-0.056l-0.066,-0.012l-0.022,0.035c-0.033,-0.012 -0.066,-0.023 -0.089,-0.023c-0.066,0 -0.099,0.045 -0.132,0.17l0.165,0c-0.043,0.182 -0.055,0.238 -0.043,0.511l0.033,1.906l0.033,0.182l-0.023,0.113c0,0.023 -0.01,0.034 -0.01,0.056c0,0.365 0.432,0.66 0.84,0.66l0.154,-0.011l0.055,0.056l0.178,0l0.155,-0.011l0.033,-0.045l0.055,0.067l0.111,-0.022l0.022,-0.034c0.033,-0.011 0.055,-0.011 0.055,-0.011l0.5,0.022l0.144,-0.011l0.54,-0.057l0.254,-0.102c0.099,-0.034 0.176,-0.091 0.22,-0.148l0.121,-0.17c0.011,-0.011 0.044,-0.035 0.056,-0.114c0.154,-0.227 0.188,-0.364 0.265,-0.966l0.011,-0.124c0.033,-0.012 0.066,-0.012 0.077,-0.012c0.033,0 0.088,0.012 0.143,0.034l-0.298,2.023l-0.165,0l-0.916,0.022l-0.044,0c-0.187,0 -0.308,-0.01 -0.353,-0.034l-0.088,-0.034l-0.953,-0.011c-0.033,0 -0.167,-0.011 -0.222,-0.011l-0.055,-0.092c-0.044,0.023 -0.078,0.092 -0.099,0.092c-0.309,0 -0.355,0.011 -0.41,0.011c-0.077,0 -0.199,-0.069 -0.32,-0.103c-0.022,-0.011 -0.066,-0.022 -0.133,0.023l-0.287,0.091c-0.044,-0.079 -0.297,-0.159 -0.319,-0.159c-0.022,0 -0.055,-0.013 -0.099,0.033l-0.11,0.07l-0.43,-0.024c-0.011,0.045 -0.077,0.058 -0.165,0.08c-0.144,0.034 -0.376,0.068 -0.464,0.068c-0.044,0 -0.088,-0.034 -0.077,-0.056l0.011,-0.103l0.11,-0.011Z" style="fill:#876500;fill-rule:nonzero;"/><path d="M49.809,12.223l0.14,-0.034l0.476,0.011l0.616,-0.022c0.011,0 0.033,0 0.054,0.011l0.054,-0.057l0.454,0.08l0.141,-0.023l0.259,0l0.141,-0.045c0.097,0 0.14,0 0.161,0.068l0.076,0.034l0.109,-0.068l0.129,0.011l0.195,0.034l0.13,-0.023l0.118,-0.033l-0.075,-0.284l-0.098,-0.08l-0.043,-0.125l-0.065,-0.091l-0.011,-0.079l0.087,0l-0.098,-0.092c-0.108,-0.101 -0.15,-0.159 -0.15,-0.204c0,-0.023 0.01,-0.034 -0.163,-0.329c0.011,-0.08 0.033,-0.091 0.108,-0.091l0,-0.08c-0.162,0 -0.173,-0.012 -0.259,-0.216l-0.065,-0.125l0.022,-0.09l0.011,-0.092l-0.054,0.035l-0.065,-0.012c0.01,-0.034 0.01,-0.056 0.01,-0.068c0,-0.034 -0.021,-0.091 -0.053,-0.148l-0.076,0l-0.108,-0.239l-0.195,-0.363l-0.097,-0.273c-0.033,-0.068 -0.065,-0.113 -0.184,-0.272l-0.14,0.25l-0.271,0.568c-0.064,0.136 -0.064,0.136 -0.281,0.261l0.011,0.068l0.087,-0.011c-0.043,0.182 -0.076,0.216 -0.184,0.261l0,0.114l-0.108,0.216c-0.097,0.227 -0.119,0.272 -0.216,0.397c-0.119,0.239 -0.141,0.262 -0.13,0.364l-0.065,0.057l0,0.068l-0.076,0.057c-0.01,0.113 -0.021,0.125 -0.086,0.216c-0.065,0.102 -0.14,0.261 -0.238,0.477c0.033,0.011 0.055,0.011 0.065,0.011M47.269,15.303l-0.01,-0.057l0.076,0l0.19,0.011c0.054,0 0.108,-0.034 0.184,-0.102l0.039,0c0.021,-0.035 0.047,-0.046 0.112,-0.08l0.129,-0.079l0,-0.057l0.169,-0.239l0.058,-0.136l0.055,-0.114l0.086,-0.022l-0.011,-0.125l0.044,-0.103c0.043,-0.045 0.075,-0.091 0.075,-0.125c0,0 -0.011,-0.023 0.022,-0.193l0.086,0c0.098,-0.204 0.098,-0.227 0.108,-0.318l0.108,-0.216l0.098,-0.057l-0.055,-0.147l0.098,0.011l0,-0.171c0.119,-0.022 0.087,-0.09 0.129,-0.238c0.066,-0.046 0.076,-0.057 0.076,-0.137l0.109,-0.238l0.14,-0.239c0.032,-0.238 0.043,-0.272 0.151,-0.329l0,-0.103l0.087,-0.011l-0.033,-0.102l0.033,-0.023c0.086,-0.136 0.107,-0.181 0.129,-0.318l0.076,0l0.032,-0.091l-0.021,-0.102c0.065,-0.045 0.075,-0.068 0.087,-0.159l0.108,-0.205c0.054,-0.045 0.054,-0.056 0.064,-0.125l0.14,-0.249l0.065,-0.023l-0.054,-0.057l0.033,-0.057l-0.021,-0.057l0.193,-0.272l0.206,-0.387c0.065,-0.068 0.098,-0.125 0.098,-0.158l-0.011,-0.046l0.075,-0.034c0.033,-0.182 0.054,-0.239 0.174,-0.352c0,-0.148 0.021,-0.183 0.216,-0.364c0.032,-0.012 0.042,-0.216 0.139,-0.307c0.108,-0.159 0.266,-0.526 0.352,-0.617c0.022,0.091 0.163,0.321 0.174,0.343l0.086,0.194l0.141,0.262l0.097,0.125c-0.032,0.034 -0.043,0.08 -0.043,0.091c0,0.034 0.011,0.068 0.043,0.113l0,-0.034l0.098,0.023l0.042,0.125l0.087,0.136l0.022,0.103l0.075,0.079l0.044,0.182l0.086,0.046l0.021,0.181l0.087,0.114l0.087,0.09c0.075,0.239 0.064,0.228 0.14,0.33l-0.021,0.057l0.032,0.091l0.054,0.011l0.033,0.102c0.021,0.137 0.021,0.137 0.086,0.205l0.086,0.103l-0.032,0.056l0.087,0.08l0,0.056c0.032,0.035 0.032,0.035 0.064,0.114c0.022,0.034 0.044,0.091 0.087,0.148l0,0.068c0.043,0.068 0.065,0.137 0.065,0.17c0,0.024 -0.011,0.046 -0.022,0.08l0.086,-0.012l0.033,0.08l0.065,0.239l0.076,0.022l0.28,0.602l0.162,0.387c0.076,0.17 0.087,0.193 0.13,0.261c0.097,0.148 0.108,0.171 0.13,0.284l0.022,0.114l0.075,0.046l-0.011,0.113c0.108,0.091 0.13,0.125 0.163,0.239l0.032,0.102c0.021,0.114 0.043,0.147 0.087,0.204l0,0.046c0.064,0.056 0.075,0.079 0.075,0.17c0.119,0.148 0.13,0.159 0.152,0.261l0.097,0.182l0.053,0.046l0,0.068c0.055,0.034 0.066,0.045 0.077,0.125l0.183,0.17c0.248,0.103 0.356,0.125 0.649,0.125l0.043,0.057l-0.011,0.012l-0.108,-0.023l-0.022,0.08l-0.108,0.011l-0.054,0c-0.022,0 -0.054,-0.011 -0.097,-0.034l-0.295,0.045l-0.162,-0.022l-0.043,-0.069c-0.054,0.034 -0.087,0.057 -0.119,0.057c-0.021,0 -0.054,-0.023 -0.097,-0.057l-0.054,0.012l-0.086,-0.035l-0.119,0.103l-0.065,-0.103c-0.043,0.057 -0.065,0.069 -0.217,-0.022c-0.032,0.068 -0.053,0.079 -0.108,0.079c-0.097,-0.011 -0.119,0 -0.238,-0.045c-0.161,0.057 -0.183,0.091 -0.324,0.023l-0.054,0.045l-0.065,-0.034l-0.119,0.046l-0.27,0.023l-0.119,0.01c-0.021,-0.045 -0.032,-0.09 -0.032,-0.113c0,-0.023 0.011,0 0.022,-0.034l0.129,-0.034l0.368,-0.069c0.303,-0.068 0.454,-0.227 0.454,-0.499c0,-0.114 -0.032,-0.239 -0.087,-0.353c-0.107,-0.204 -0.097,-0.181 -0.107,-0.295l-0.087,-0.057l0,-0.045l0.043,-0.023l-0.011,-0.045c-0.032,-0.058 -0.065,-0.103 -0.065,-0.137c0,-0.011 0.011,-0.034 -0.054,-0.205l-0.086,-0.079l-0.109,-0.182l-0.151,-0.363l-0.129,-0.169l-0.032,-0.114l0.043,-0.068l-0.054,-0.034l-0.13,0.102l-0.054,-0.034l-0.184,0.034l-0.097,-0.034l-0.065,0.034l-0.433,-0.045l-0.431,0.034c0,0 -0.022,-0.011 -0.055,-0.011l-0.032,-0.114l-0.076,0c-0.054,0.08 -0.064,0.091 -0.151,0.114l-0.043,-0.103c-0.065,0 -0.076,0 -0.097,0.057c-0.033,0.023 -0.055,0.023 -0.065,0.023c-0.022,0 -0.054,-0.011 -0.098,-0.035l-0.194,-0.022c-0.076,0.046 -0.119,0.068 -0.173,0.068c-0.065,0 -0.086,-0.091 -0.141,-0.091c-0.01,0 -0.043,0 -0.075,-0.022l-0.162,0.102l-0.151,-0.057l-0.055,0.068l-0.681,0.023c-0.097,0.091 -0.108,0.078 -0.183,0.271c-0.011,0.034 -0.022,0.068 -0.076,0.182c-0.022,0.045 -0.043,0.091 -0.054,0.113c-0.054,0.103 -0.065,0.136 -0.086,0.227l-0.098,0.012c0.055,0.08 0.065,0.125 0.065,0.25c-0.173,0.205 -0.162,0.17 -0.184,0.273l-0.053,0.034l-0.033,0.215c-0.13,-0.011 -0.205,0.023 -0.205,0.092c0,0.022 0.021,0.045 0.054,0.068l0,-0.091l0.065,-0.012c0.011,0.035 0.022,0.057 0.022,0.068c0,0.035 -0.022,0.08 -0.066,0.137l-0.043,0.023l-0.021,-0.08l-0.033,0l0.011,0.114l0.054,0l0.032,0.068l-0.075,0.17c0.205,0.387 0.421,0.534 0.864,0.534l0.087,0l0.032,0.034c-0.021,0.012 -0.032,0.057 -0.032,0.08c0,0.012 0.011,0.023 0.011,0.045l-0.033,0.035l-0.108,-0.035l-0.302,-0.01l-0.109,-0.023l-0.151,0.011l-0.151,-0.046l-0.108,0.023l-0.044,-0.057l-0.13,0.046l-0.129,-0.057l-0.249,0l-0.032,0.045c-0.065,0.012 -0.108,0.023 -0.141,0.023c-0.032,0 -0.086,-0.011 -0.151,-0.034l-0.302,0.046l-0.26,0.033c-0.011,0 -0.021,-0.01 -0.054,-0.067l0.043,-0.091Z" style="fill:#876500;fill-rule:nonzero;"/><path d="M30.796,1.331l-1.01,0l0.002,0.199l0.337,0l0,3.392l0.333,0l0,-3.392l0.338,0l0,-0.199Z" style="fill:#f0e6b4;fill-rule:nonzero;"/><path d="M33.442,4.922l0,-3.563l-0.338,0l0,1.506l-0.44,0l0,-1.506l-0.333,0l0,3.563l0.333,0l0,-1.861l0.44,0l0,1.861l0.338,0Z" style="fill:#f0e6b4;fill-rule:nonzero;"/><path d="M35.24,1.352l0,3.57l0.832,0l0,-0.199l-0.505,0l0,-1.644l0.441,0l0,-0.193l-0.441,0l0,-1.342l0.505,0l0,-0.192l-0.832,0Z" style="fill:#f0e6b4;fill-rule:nonzero;"/><path d="M15.956,22.774l0.369,0c0.279,0 0.378,-0.214 0.378,-0.376c0,-0.352 -0.202,-0.413 -0.468,-0.413l-0.279,0l0,0.789ZM15.956,21.74l0.38,0c0.205,-0.002 0.304,-0.137 0.304,-0.351c0,-0.184 -0.096,-0.334 -0.315,-0.334l-0.369,0l0,0.685ZM15.695,23.019l0,-2.208l0.667,0c0.284,0 0.381,0.103 0.458,0.226c0.071,0.12 0.082,0.251 0.082,0.293c0,0.276 -0.088,0.459 -0.352,0.524l0,0.015c0.292,0.036 0.42,0.226 0.42,0.529c0,0.566 -0.383,0.621 -0.616,0.621l-0.659,0Z" style="fill:#f0e6b4;fill-rule:nonzero;"/><path d="M19.038,20.811l0.264,0l-0.559,1.367l0,0.841l-0.261,0l0,-0.841l-0.552,-1.367l0.293,0l0.4,1.067l0.415,-1.067Z" style="fill:#f0e6b4;fill-rule:nonzero;"/><path d="M21.187,23.019l0,-2.208l1.017,0l0,0.245l-0.756,0l0,0.709l0.716,0l0,0.244l-0.716,0l0,1.01l-0.261,0Z" style="fill:#f0e6b4;fill-rule:nonzero;"/><rect x="23.235" y="20.811" width="0.261" height="2.208" style="fill:#f0e6b4;fill-rule:nonzero;"/><path d="M24.736,23.019l0,-2.208l1.057,0l0,0.245l-0.796,0l0,0.709l0.739,0l0,0.244l-0.739,0l0,0.765l0.813,0l0,0.245l-1.074,0Z" style="fill:#f0e6b4;fill-rule:nonzero;"/><path d="M27.043,22.362l0,0.064c0,0.3 0.176,0.395 0.344,0.395c0.207,0 0.366,-0.095 0.366,-0.359c0,-0.489 -0.92,-0.434 -0.92,-1.097c0,-0.392 0.258,-0.599 0.602,-0.599c0.375,0 0.585,0.195 0.568,0.645l-0.273,0c0.003,-0.242 -0.068,-0.401 -0.315,-0.401c-0.157,0 -0.316,0.086 -0.316,0.325c0,0.486 0.921,0.415 0.921,1.116c0,0.464 -0.298,0.614 -0.637,0.614c-0.605,0.006 -0.605,-0.493 -0.599,-0.703l0.259,0Z" style="fill:#f0e6b4;fill-rule:nonzero;"/><path d="M30.043,20.811l0,0.245l-0.54,0l0,1.963l-0.261,0l0,-1.963l-0.54,0l0,-0.245l1.341,0Z" style="fill:#f0e6b4;fill-rule:nonzero;"/><path d="M31.436,21.071l-0.006,0l-0.321,1.177l0.656,0l-0.329,-1.177ZM31.276,20.811l0.333,0l0.667,2.208l-0.292,0l-0.148,-0.526l-0.793,0l-0.153,0.526l-0.263,0l0.649,-2.208Z" style="fill:#f0e6b4;fill-rule:nonzero;"/><path d="M33.427,23.019l-0.244,0l0,-2.208l0.424,0l0.517,1.853l0.005,0l0.523,-1.853l0.432,0l0,2.208l-0.261,0l0,-1.963l-0.006,0l-0.574,1.963l-0.248,0l-0.562,-1.963l-0.006,0l0,1.963Z" style="fill:#f0e6b4;fill-rule:nonzero;"/><path d="M36.22,23.019l0,-2.208l1.057,0l0,0.245l-0.796,0l0,0.709l0.739,0l0,0.244l-0.739,0l0,0.765l0.813,0l0,0.245l-1.074,0Z" style="fill:#f0e6b4;fill-rule:nonzero;"/><path d="M38.678,21.759l0.392,0c0.188,0 0.279,-0.175 0.279,-0.367c0,-0.159 -0.074,-0.337 -0.276,-0.337l-0.395,0l0,0.704ZM38.678,22.004l0,1.015l-0.261,0l0,-2.208l0.707,0c0.364,0 0.492,0.275 0.492,0.551c0,0.259 -0.134,0.458 -0.375,0.504l0,0.006c0.235,0.04 0.321,0.125 0.335,0.569c0.003,0.094 0.031,0.44 0.071,0.578l-0.273,0c-0.074,-0.153 -0.056,-0.441 -0.079,-0.735c-0.02,-0.268 -0.222,-0.28 -0.31,-0.28l-0.307,0Z" style="fill:#f0e6b4;fill-rule:nonzero;"/><rect x="40.77" y="20.811" width="0.261" height="2.208" style="fill:#f0e6b4;fill-rule:nonzero;"/><path d="M43.162,21.419c0.003,-0.125 -0.006,-0.25 -0.06,-0.321c-0.054,-0.07 -0.176,-0.094 -0.23,-0.094c-0.216,0 -0.301,0.14 -0.31,0.17c-0.009,0.025 -0.06,0.08 -0.06,0.46l0,0.59c0,0.541 0.165,0.605 0.367,0.605c0.08,0 0.321,-0.03 0.324,-0.462l0.27,0c0.011,0.697 -0.446,0.697 -0.58,0.697c-0.255,0 -0.647,-0.018 -0.647,-0.874l0,-0.624c0,-0.624 0.255,-0.801 0.659,-0.801c0.406,0 0.562,0.226 0.537,0.654l-0.27,0Z" style="fill:#f0e6b4;fill-rule:nonzero;"/><path d="M45.193,21.071l-0.005,0l-0.321,1.177l0.656,0l-0.33,-1.177ZM45.034,20.811l0.332,0l0.668,2.208l-0.292,0l-0.148,-0.526l-0.793,0l-0.153,0.526l-0.264,0l0.65,-2.208Z" style="fill:#f0e6b4;fill-rule:nonzero;"/><path d="M48.46,20.811l0,2.208l-0.358,0l-0.809,-1.914l-0.006,0l0,1.914l-0.233,0l0,-2.208l0.37,0l0.798,1.89l0.005,0l0,-1.89l0.233,0Z" style="fill:#f0e6b4;fill-rule:nonzero;"/><path d="M50.29,21.071l-0.005,0l-0.322,1.177l0.657,0l-0.33,-1.177ZM50.131,20.811l0.332,0l0.668,2.208l-0.293,0l-0.147,-0.526l-0.793,0l-0.153,0.526l-0.264,0l0.65,-2.208Z" style="fill:#f0e6b4;fill-rule:nonzero;"/><path d="M64.484,14.969c-0.027,-0.015 -0.071,-0.023 -0.131,-0.023l-0.093,0l0,0.222l0.098,0c0.046,0 0.081,-0.004 0.103,-0.014c0.042,-0.016 0.064,-0.048 0.064,-0.096c0,-0.044 -0.014,-0.074 -0.041,-0.089M64.367,14.872c0.076,0 0.132,0.008 0.167,0.022c0.064,0.027 0.096,0.078 0.096,0.155c0,0.055 -0.02,0.095 -0.06,0.122c-0.021,0.013 -0.051,0.023 -0.089,0.029c0.048,0.008 0.083,0.028 0.105,0.06c0.023,0.033 0.033,0.065 0.033,0.095l0,0.045c0,0.014 0.001,0.029 0.002,0.046c0.001,0.015 0.003,0.026 0.005,0.031l0.004,0.008l-0.101,0c0,-0.002 -0.001,-0.004 -0.001,-0.004l-0.002,-0.009l-0.002,-0.019l0,-0.049c0,-0.071 -0.019,-0.118 -0.058,-0.14c-0.023,-0.014 -0.062,-0.02 -0.12,-0.02l-0.086,0l0,0.241l-0.107,0l0,-0.613l0.214,0ZM64.039,14.841c-0.093,0.094 -0.14,0.207 -0.14,0.34c0,0.134 0.047,0.247 0.139,0.342c0.093,0.094 0.207,0.141 0.34,0.141c0.133,0 0.246,-0.047 0.34,-0.141c0.093,-0.095 0.139,-0.208 0.139,-0.342c0,-0.133 -0.046,-0.246 -0.139,-0.34c-0.094,-0.094 -0.207,-0.141 -0.34,-0.141c-0.133,0 -0.245,0.047 -0.339,0.141M64.773,15.576c-0.109,0.11 -0.241,0.164 -0.395,0.164c-0.155,0 -0.286,-0.054 -0.395,-0.164c-0.108,-0.109 -0.161,-0.241 -0.161,-0.396c0,-0.153 0.054,-0.285 0.163,-0.394c0.108,-0.108 0.24,-0.162 0.393,-0.162c0.154,0 0.286,0.054 0.395,0.162c0.109,0.109 0.164,0.24 0.164,0.394c0,0.155 -0.055,0.287 -0.164,0.396" style="fill:#876500;fill-rule:nonzero;"/><path d="M28.828,5.569l8.34,0l0,-4.779l-8.34,0l0,4.779ZM37.421,5.822l-8.846,0l0,-5.285l8.846,0l0,5.285Z" style="fill:#f0e6b4;fill-rule:nonzero;"/><path d="M14.525,23.969l37.909,0l0,-4.23l-37.909,0l0,4.23ZM52.66,24.193l-38.389,0l0,-4.678l38.389,0l0,4.678Z" style="fill:#f0e6b4;fill-rule:nonzero;"/></g></svg>