<?xml version="1.0" standalone="no"?><!DOCTYPE svg PUBLIC "-//W3C//DTD SVG 1.1//EN" "http://www.w3.org/Graphics/SVG/1.1/DTD/svg11.dtd"><svg width="100%" height="100%" viewBox="0 0 76 26" version="1.1" xmlns="http://www.w3.org/2000/svg" xmlns:xlink="http://www.w3.org/1999/xlink" xml:space="preserve" style="fill-rule:evenodd;clip-rule:evenodd;stroke-linejoin:round;stroke-miterlimit:1.41421;"><g><path d="M26.491,16.359l-0.656,0l0,-5.589l4.591,0l0,0.656l-3.935,0l0,1.706l2.452,0l0,0.657l-2.452,0l0,2.57Z" style="fill:#663700;fill-rule:nonzero;"/><rect x="31.93" y="10.77" width="0.656" height="5.589" style="fill:#663700;fill-rule:nonzero;"/><path d="M38.928,16.359l-4.755,0l0,-5.589l4.591,0l0,0.656l-3.935,0l0,1.706l2.071,0l0,0.657l-2.071,0l0,1.914l4.099,0l0,0.656Z" style="fill:#663700;fill-rule:nonzero;"/><path d="M43.294,13.08c1.044,0 2.101,0.38 2.101,1.617c0,1.215 -1.296,1.781 -2.667,1.781c-1.699,0 -2.467,-0.849 -2.795,-1.2l0.47,-0.462c0.342,0.306 0.901,1.006 2.347,1.006c1.26,0 1.99,-0.477 1.99,-1.125c0,-0.7 -0.708,-0.961 -1.267,-0.961l-1.178,0c-1.08,0 -1.952,-0.358 -1.952,-1.401c0,-0.776 0.701,-1.684 2.415,-1.684c1.281,0 2.056,0.611 2.339,0.819l-0.41,0.515c-0.402,-0.269 -0.938,-0.679 -1.944,-0.679c-1.26,0 -1.744,0.589 -1.744,1.029c0,0.745 0.946,0.745 1.617,0.745l0.678,0Z" style="fill:#663700;fill-rule:nonzero;"/><path d="M48.83,16.359l-0.656,0l0,-4.933l-2.042,0l0,-0.656l4.74,0l0,0.656l-2.042,0l0,4.933Z" style="fill:#663700;fill-rule:nonzero;"/><path d="M53.867,11.567l-1.051,2.221l2.065,0l-1.014,-2.221ZM56.81,16.358l-0.729,0l-0.91,-1.915l-2.682,0l-0.88,1.915l-0.73,0l2.66,-5.589l0.656,0l2.615,5.589Z" style="fill:#663700;fill-rule:nonzero;"/><rect x="61.258" y="10.77" width="0.656" height="5.589" style="fill:#663700;fill-rule:nonzero;"/><path d="M68.524,16.359l-0.655,0l-3.623,-4.553l-0.014,0l0,4.553l-0.656,0l0,-5.589l0.656,0l3.621,4.613l0.016,0l0,-4.613l0.655,0l0,5.589Z" style="fill:#663700;fill-rule:nonzero;"/><path d="M75.103,16.359l-0.656,0l-3.621,-4.553l-0.015,0l0,4.553l-0.656,0l0,-5.589l0.656,0l3.622,4.613l0.014,0l0,-4.613l0.656,0l0,5.589Z" style="fill:#663700;fill-rule:nonzero;"/><path d="M11.886,7.722l0,2.636c0,1.853 1.854,1.853 1.854,1.853l5.404,0l0,-6.342l-5.404,0c-1.854,0 -1.854,1.853 -1.854,1.853" style="fill:#673918;fill-rule:nonzero;"/><path d="M11.886,18.204l0,7.109l4.851,0c0,0 2.407,0 2.407,-2.407l0,-6.556l-5.404,0c-1.854,0 -1.854,1.854 -1.854,1.854" style="fill:#673918;fill-rule:nonzero;"/><path d="M16.737,0.039l-14.308,0c0,0 -2.404,0 -2.404,2.408l0,20.459c0,0 0,2.407 2.404,2.407l9.457,0l0,-7.109c0,0 0,-1.854 1.853,-1.854l5.405,0l0,-0.197l0,-3.743l0,-0.198l-5.405,0c0,0 -1.853,0 -1.853,-1.853l0,-2.636c0,0 0,-1.853 1.853,-1.853l5.405,0l0,-0.2l0,-3.223c0,0 0,-2.408 -2.407,-2.408" style="fill:#d0333a;fill-rule:nonzero;"/><path d="M27.473,20.826l-0.221,0l0,-0.878l-1.215,0l0,0.878l-0.222,0l0,-1.89l0.222,0l0,0.793l1.215,0l0,-0.793l0.221,0l0,1.89Z" style="fill:#673918;fill-rule:nonzero;"/><path d="M29.396,20.645c0.454,0 0.793,-0.345 0.793,-0.766c0,-0.417 -0.339,-0.761 -0.793,-0.761c-0.454,0 -0.794,0.344 -0.794,0.761c0,0.421 0.34,0.766 0.794,0.766M29.396,18.895c0.579,0 1.016,0.454 1.016,0.984c0,0.534 -0.437,0.988 -1.016,0.988c-0.58,0 -1.015,-0.454 -1.015,-0.988c0,-0.53 0.433,-0.984 1.015,-0.984" style="fill:#673918;fill-rule:nonzero;"/><path d="M31.997,20.826l-0.221,0l0,-1.669l-0.689,0l0,-0.221l1.602,0l0,0.221l-0.692,0l0,1.669Z" style="fill:#673918;fill-rule:nonzero;"/><path d="M35.086,20.826l-1.608,0l0,-1.89l1.552,0l0,0.221l-1.331,0l0,0.578l0.7,0l0,0.221l-0.7,0l0,0.649l1.387,0l0,0.221Z" style="fill:#673918;fill-rule:nonzero;"/><path d="M37.329,20.826l-1.408,0l0,-1.89l0.221,0l0,1.669l1.187,0l0,0.221Z" style="fill:#673918;fill-rule:nonzero;"/><path d="M39.605,20.826l-1.607,0l0,-1.89l1.552,0l0,0.221l-1.33,0l0,0.578l0.7,0l0,0.221l-0.7,0l0,0.649l1.385,0l0,0.221Z" style="fill:#673918;fill-rule:nonzero;"/><path d="M41.308,19.717c0.352,0 0.71,0.129 0.71,0.546c0,0.411 -0.438,0.604 -0.902,0.604c-0.574,0 -0.835,-0.288 -0.945,-0.406l0.16,-0.157c0.113,0.105 0.303,0.341 0.793,0.341c0.426,0 0.673,-0.161 0.673,-0.382c0,-0.237 -0.24,-0.324 -0.429,-0.324l-0.399,0c-0.364,0 -0.66,-0.123 -0.66,-0.475c0,-0.262 0.237,-0.569 0.817,-0.569c0.433,0 0.696,0.207 0.792,0.278l-0.139,0.173c-0.136,-0.091 -0.318,-0.228 -0.659,-0.228c-0.424,0 -0.588,0.198 -0.588,0.346c0,0.253 0.32,0.253 0.547,0.253l0.229,0Z" style="fill:#673918;fill-rule:nonzero;"/><path d="M45.039,20.604c0.277,0 0.46,-0.071 0.46,-0.3c0,-0.221 -0.176,-0.336 -0.46,-0.336l-0.831,0l0,0.636l0.831,0ZM45.039,19.748c0.242,0 0.371,-0.125 0.371,-0.307c0,-0.155 -0.118,-0.284 -0.371,-0.284l-0.831,0l0,0.591l0.831,0ZM45.039,18.935c0.298,0 0.592,0.149 0.592,0.517c0,0.212 -0.105,0.345 -0.181,0.384c0.119,0.067 0.27,0.233 0.27,0.458c0,0.438 -0.36,0.531 -0.681,0.531l-1.052,0l0,-1.89l1.052,0Z" style="fill:#673918;fill-rule:nonzero;"/><path d="M48.26,20.091c0,0.485 -0.256,0.776 -0.835,0.776c-0.597,0 -0.834,-0.291 -0.834,-0.776l0,-1.155l0.221,0l0,1.155c0,0.401 0.212,0.554 0.613,0.554c0.4,0 0.613,-0.153 0.613,-0.554l0,-1.155l0.222,0l0,1.155Z" style="fill:#673918;fill-rule:nonzero;"/><path d="M50.158,19.717c0.353,0 0.713,0.129 0.713,0.546c0,0.411 -0.44,0.604 -0.904,0.604c-0.574,0 -0.833,-0.288 -0.944,-0.406l0.158,-0.157c0.116,0.105 0.305,0.341 0.794,0.341c0.427,0 0.672,-0.161 0.672,-0.382c0,-0.237 -0.239,-0.324 -0.428,-0.324l-0.399,0c-0.365,0 -0.659,-0.123 -0.659,-0.475c0,-0.262 0.237,-0.569 0.816,-0.569c0.433,0 0.696,0.207 0.791,0.278l-0.138,0.173c-0.137,-0.091 -0.318,-0.228 -0.658,-0.228c-0.425,0 -0.589,0.198 -0.589,0.346c0,0.253 0.32,0.253 0.546,0.253l0.229,0Z" style="fill:#673918;fill-rule:nonzero;"/><rect x="51.669" y="18.936" width="0.223" height="1.89" style="fill:#673918;fill-rule:nonzero;"/><path d="M54.605,20.826l-0.222,0l-1.226,-1.54l-0.004,0l0,1.54l-0.223,0l0,-1.89l0.223,0l1.223,1.56l0.007,0l0,-1.56l0.222,0l0,1.89Z" style="fill:#673918;fill-rule:nonzero;"/><path d="M57.217,20.826l-1.609,0l0,-1.89l1.553,0l0,0.221l-1.331,0l0,0.578l0.7,0l0,0.221l-0.7,0l0,0.649l1.387,0l0,0.221Z" style="fill:#673918;fill-rule:nonzero;"/><path d="M58.92,19.717c0.352,0 0.71,0.129 0.71,0.546c0,0.411 -0.438,0.604 -0.901,0.604c-0.576,0 -0.835,-0.288 -0.946,-0.406l0.158,-0.157c0.116,0.105 0.307,0.341 0.795,0.341c0.425,0 0.673,-0.161 0.673,-0.382c0,-0.237 -0.24,-0.324 -0.429,-0.324l-0.398,0c-0.366,0 -0.66,-0.123 -0.66,-0.475c0,-0.262 0.237,-0.569 0.816,-0.569c0.433,0 0.695,0.207 0.789,0.278l-0.135,0.173c-0.138,-0.091 -0.319,-0.228 -0.658,-0.228c-0.429,0 -0.591,0.198 -0.591,0.346c0,0.253 0.321,0.253 0.547,0.253l0.23,0Z" style="fill:#673918;fill-rule:nonzero;"/><path d="M61.294,19.717c0.353,0 0.71,0.129 0.71,0.546c0,0.411 -0.438,0.604 -0.901,0.604c-0.574,0 -0.835,-0.288 -0.945,-0.406l0.158,-0.157c0.117,0.105 0.306,0.341 0.794,0.341c0.426,0 0.674,-0.161 0.674,-0.382c0,-0.237 -0.241,-0.324 -0.429,-0.324l-0.398,0c-0.366,0 -0.659,-0.123 -0.659,-0.475c0,-0.262 0.235,-0.569 0.816,-0.569c0.432,0 0.694,0.207 0.79,0.278l-0.137,0.173c-0.138,-0.091 -0.32,-0.228 -0.659,-0.228c-0.426,0 -0.589,0.198 -0.589,0.346c0,0.253 0.321,0.253 0.547,0.253l0.228,0Z" style="fill:#673918;fill-rule:nonzero;"/><path d="M65.805,20.49c-0.108,0.1 -0.353,0.376 -0.909,0.376c-0.509,0 -1.047,-0.333 -1.047,-0.987c0,-0.653 0.538,-0.985 1.015,-0.985c0.524,0 0.815,0.281 0.912,0.376l-0.158,0.154c-0.102,-0.089 -0.366,-0.307 -0.748,-0.307c-0.483,0 -0.8,0.369 -0.8,0.76c0,0.386 0.317,0.767 0.838,0.767c0.439,0 0.657,-0.236 0.747,-0.323l0.15,0.169Z" style="fill:#673918;fill-rule:nonzero;"/><path d="M68.079,20.826l-1.409,0l0,-1.89l0.221,0l0,1.669l1.188,0l0,0.221Z" style="fill:#673918;fill-rule:nonzero;"/><path d="M69.445,19.205l-0.356,0.751l0.698,0l-0.342,-0.751ZM70.441,20.826l-0.247,0l-0.306,-0.647l-0.909,0l-0.299,0.647l-0.245,0l0.9,-1.89l0.221,0l0.885,1.89Z" style="fill:#673918;fill-rule:nonzero;"/><path d="M72.008,19.717c0.352,0 0.709,0.129 0.709,0.546c0,0.411 -0.437,0.604 -0.9,0.604c-0.575,0 -0.835,-0.288 -0.945,-0.406l0.158,-0.157c0.117,0.105 0.305,0.341 0.794,0.341c0.425,0 0.672,-0.161 0.672,-0.382c0,-0.237 -0.239,-0.324 -0.428,-0.324l-0.398,0c-0.365,0 -0.658,-0.123 -0.658,-0.475c0,-0.262 0.235,-0.569 0.814,-0.569c0.433,0 0.696,0.207 0.792,0.278l-0.14,0.173c-0.135,-0.091 -0.317,-0.228 -0.656,-0.228c-0.427,0 -0.59,0.198 -0.59,0.346c0,0.253 0.32,0.253 0.546,0.253l0.23,0Z" style="fill:#673918;fill-rule:nonzero;"/><path d="M74.384,19.717c0.352,0 0.712,0.129 0.712,0.546c0,0.411 -0.44,0.604 -0.903,0.604c-0.575,0 -0.833,-0.288 -0.945,-0.406l0.158,-0.157c0.117,0.105 0.305,0.341 0.794,0.341c0.426,0 0.674,-0.161 0.674,-0.382c0,-0.237 -0.24,-0.324 -0.428,-0.324l-0.399,0c-0.367,0 -0.661,-0.123 -0.661,-0.475c0,-0.262 0.237,-0.569 0.817,-0.569c0.433,0 0.696,0.207 0.791,0.278l-0.14,0.173c-0.135,-0.091 -0.316,-0.228 -0.656,-0.228c-0.425,0 -0.59,0.198 -0.59,0.346c0,0.253 0.32,0.253 0.547,0.253l0.229,0Z" style="fill:#673918;fill-rule:nonzero;"/></g></svg>