<?xml version="1.0" standalone="no"?><!DOCTYPE svg PUBLIC "-//W3C//DTD SVG 1.1//EN" "http://www.w3.org/Graphics/SVG/1.1/DTD/svg11.dtd"><svg width="100%" height="100%" viewBox="0 0 58 26" version="1.1" xmlns="http://www.w3.org/2000/svg" xmlns:xlink="http://www.w3.org/1999/xlink" xml:space="preserve" style="fill-rule:evenodd;clip-rule:evenodd;stroke-linejoin:round;stroke-miterlimit:1.41421;"><g><rect x="0.571" y="0.586" width="16.002" height="16.086" style="fill:#c2c6c9;fill-rule:nonzero;"/><rect x="16.573" y="0.586" width="40.31" height="16.086" style="fill:#fff;fill-rule:nonzero;"/><rect x="0.571" y="16.672" width="56.312" height="8.043" style="fill:#c2c6c9;fill-rule:nonzero;"/><path d="M22.383,11.77c-2.025,0 -3.312,-1.112 -3.312,-3.059c0,-2.068 1.254,-3.114 3.345,-3.114c0.946,0 1.452,0.176 1.903,0.352l-0.385,1.024c-0.638,-0.188 -0.924,-0.243 -1.529,-0.243c-1.09,0 -1.937,0.518 -1.937,1.893c0,1.419 0.935,1.992 2.047,1.992c0.176,0 0.351,-0.012 0.484,-0.022l0,-1.953l1.365,0l0,2.799c-0.705,0.254 -1.288,0.331 -1.981,0.331" style="fill:#231f20;fill-rule:nonzero;"/><path d="M38.051,11.671l0,-3.18l0.055,-0.913l-1.761,4.093l-1.573,0l-1.639,-4.093l0.099,0.847l0,3.246l-1.32,0l0,-6.008l1.749,0l1.926,4.764l2.123,-4.764l1.661,0l0,6.008l-1.32,0Z" style="fill:#231f20;fill-rule:nonzero;"/><path d="M46.965,11.671l0,-3.18l0.055,-0.913l-1.761,4.093l-1.573,0l-1.64,-4.093l0.099,0.847l0,3.246l-1.32,0l0,-6.008l1.749,0l1.926,4.764l2.124,-4.764l1.661,0l0,6.008l-1.32,0Z" style="fill:#231f20;fill-rule:nonzero;"/><path d="M27.562,10.615c-0.451,0 -0.727,-0.199 -0.727,-0.694c0,-0.385 0.154,-0.704 1.145,-0.748l1.111,-0.055l0,1.067c-0.242,0.066 -1.056,0.43 -1.529,0.43M28.079,5.52c-0.925,0 -1.684,0.231 -2.211,0.429l0.285,1.079c0.441,-0.11 1.09,-0.275 1.673,-0.275c0.869,0 1.265,0.109 1.265,0.825l0,0.637c-0.198,0 -1.199,0.012 -1.199,0.012c-1.1,0.011 -2.465,0.286 -2.465,1.782c0,1.167 0.704,1.75 1.915,1.75c0.799,0 1.37,-0.363 1.749,-0.635l0,0.547l1.405,0l0.004,-4.412c0,-1.552 -1.167,-1.739 -2.421,-1.739" style="fill:#231f20;fill-rule:nonzero;"/><path d="M51.428,10.615c-0.451,0 -0.727,-0.199 -0.727,-0.694c0,-0.385 0.154,-0.704 1.145,-0.748l1.111,-0.055l0,1.067c-0.242,0.066 -1.056,0.43 -1.529,0.43M51.945,5.52c-0.924,0 -1.684,0.231 -2.211,0.429l0.285,1.079c0.44,-0.11 1.09,-0.275 1.673,-0.275c0.869,0 1.265,0.109 1.265,0.825l0,0.637c-0.197,0 -1.199,0.012 -1.199,0.012c-1.101,0.011 -2.465,0.286 -2.465,1.782c0,1.167 0.704,1.75 1.915,1.75c0.798,0 1.371,-0.363 1.749,-0.635l0,0.547l1.405,0l0.004,-4.412c0,-1.552 -1.167,-1.739 -2.421,-1.739" style="fill:#231f20;fill-rule:nonzero;"/><path d="M56.406,16.194l-39.271,0l0,-15.13l39.271,0l0,15.13ZM56.406,24.237l-55.356,0l0,-7.087l55.356,0l0,7.087ZM9.454,16.194l-1.693,0c0.042,-1.013 1.62,-0.949 1.693,0M2.322,1.063c-0.017,1.341 1.208,0.745 1.737,0.266c-0.01,0.226 -0.122,0.275 -0.189,0.494c-0.101,0.332 -0.054,0.74 0.076,1.026c0.525,-0.602 1.271,-1.3 2.567,-1.141c0.294,0.037 0.801,0.265 1.057,0.533c0.889,0.933 0.042,2.401 -1.057,2.316c-0.345,-0.027 -0.543,-0.21 -0.529,-0.418c0.025,-0.376 0.658,-0.33 0.68,-0.722c0.021,-0.372 -0.413,-0.597 -0.831,-0.531c-0.781,0.125 -1.369,0.989 -0.905,1.898c0.207,0.408 0.731,0.788 1.396,0.874c0.772,0.098 0.962,-0.225 1.698,-0.38c-0.008,0.929 -0.632,1.396 -1.434,1.405c0.028,0.815 1.034,0.816 1.586,0.607c-0.063,0.304 -0.238,0.377 -0.227,0.607c0.034,0.698 1.254,0.77 1.322,0.039c0.025,-0.276 -0.183,-0.364 -0.227,-0.646c0.547,0.209 1.526,0.206 1.585,-0.57c-0.742,-0.086 -1.448,-0.475 -1.434,-1.442c0.675,0.176 1.037,0.447 1.661,0.38c0.828,-0.09 1.686,-0.707 1.585,-1.709c-0.069,-0.679 -0.786,-1.258 -1.472,-1.063c-0.207,0.059 -0.427,0.321 -0.415,0.531c0.022,0.389 0.625,0.338 0.679,0.684c0.112,0.701 -1.269,0.375 -1.547,0.114c-0.949,-0.89 -0.064,-2.362 0.981,-2.507c1.15,-0.158 2.153,0.476 2.567,1.141c0.405,-0.421 -0.028,-1.258 -0.113,-1.52c0.524,0.391 1.748,1.152 1.774,-0.266l1.286,0l0,0.988c-0.626,-0.046 -0.535,0.591 -0.371,0.987c-0.395,-0.192 -1.255,-0.255 -1.207,0.494c0.554,0.113 1.18,0.153 1.057,0.949c-0.77,-0.181 -1.359,-0.266 -1.85,0.076c-0.761,0.529 -0.743,2.665 0.302,2.543c0.799,-0.093 0.058,-0.787 0.491,-1.48c0.154,-0.168 0.417,-0.132 0.566,-0.077c0.454,0.214 0.543,0.675 0.529,1.177c-0.036,1.274 -1.816,1.987 -2.87,1.026c-0.362,-0.331 -0.699,-0.823 -0.717,-1.329c-0.537,0.131 -0.821,0.829 -0.491,1.519c-1.632,-0.69 -1.21,2.063 0,1.404c-0.241,0.632 -0.057,1.425 0.529,1.519c0.015,-0.636 0.312,-0.964 0.642,-1.29c1.032,-1.023 2.901,-0.298 2.907,1.024c0.002,0.498 -0.196,0.836 -0.529,1.14c-0.258,0.229 -0.459,0.029 -0.566,-0.077c-0.227,-0.231 0.292,-1.47 -0.528,-1.48c-1.02,-0.013 -1.016,2.022 -0.227,2.544c0.486,0.321 1.036,0.274 1.812,0.075c0.122,0.782 -0.484,0.83 -1.02,0.949c-0.142,0.64 0.727,0.795 1.17,0.456c-0.141,0.421 -0.279,1.064 0.371,1.025l0,0.969l-1.286,0c0.005,-1.314 -1.21,-0.723 -1.736,-0.247c0.01,-0.226 0.122,-0.275 0.189,-0.494c0.1,-0.331 0.053,-0.741 -0.076,-1.025c-0.525,0.601 -1.271,1.298 -2.566,1.139c-0.295,-0.036 -0.801,-0.264 -1.057,-0.532c-0.891,-0.933 -0.043,-2.401 1.057,-2.315c0.344,0.026 0.542,0.209 0.528,0.417c-0.026,0.375 -0.658,0.33 -0.68,0.721c-0.021,0.371 0.413,0.599 0.83,0.532c0.782,-0.125 1.37,-0.989 0.906,-1.898c-0.207,-0.408 -0.731,-0.789 -1.397,-0.873c-0.771,-0.099 -0.961,0.225 -1.698,0.379c0.009,-0.928 0.633,-1.396 1.435,-1.405c-0.029,-0.815 -1.034,-0.816 -1.586,-0.607c0.062,-0.304 0.238,-0.378 0.227,-0.607c-0.035,-0.698 -1.255,-0.769 -1.322,-0.039c-0.025,0.277 0.183,0.364 0.227,0.646c-0.547,-0.209 -1.526,-0.206 -1.586,0.569c0.743,0.087 1.448,0.476 1.435,1.443c-0.674,-0.176 -1.037,-0.447 -1.661,-0.379c-0.829,0.089 -1.686,0.707 -1.585,1.708c0.069,0.679 0.785,1.258 1.472,1.063c0.208,-0.059 0.427,-0.321 0.415,-0.532c-0.022,-0.388 -0.624,-0.338 -0.68,-0.683c-0.111,-0.701 1.269,-0.375 1.548,-0.114c0.949,0.889 0.064,2.361 -0.981,2.506c-1.151,0.159 -2.153,-0.475 -2.567,-1.139c-0.405,0.42 0.029,1.257 0.113,1.519c-0.522,-0.389 -1.734,-1.143 -1.773,0.247l-1.274,0l0,-0.969c0.645,0.036 0.507,-0.604 0.367,-1.025c0.443,0.339 1.312,0.184 1.169,-0.456c-0.535,-0.119 -1.141,-0.167 -1.019,-0.949c0.777,0.199 1.326,0.246 1.813,-0.075c0.788,-0.522 0.792,-2.557 -0.227,-2.544c-0.822,0.01 -0.301,1.249 -0.529,1.48c-0.108,0.106 -0.308,0.306 -0.567,0.077c-0.331,-0.304 -0.529,-0.642 -0.527,-1.14c0.006,-1.322 1.875,-2.047 2.907,-1.024c0.33,0.326 0.626,0.654 0.641,1.29c0.587,-0.094 0.77,-0.887 0.529,-1.519c1.21,0.659 1.632,-2.094 0,-1.404c0.329,-0.69 0.045,-1.388 -0.491,-1.519c-0.017,0.506 -0.354,0.998 -0.718,1.329c-1.054,0.961 -2.834,0.248 -2.868,-1.026c-0.014,-0.502 0.073,-0.963 0.527,-1.177c0.15,-0.055 0.414,-0.091 0.567,0.077c0.433,0.693 -0.308,1.387 0.492,1.48c1.044,0.122 1.062,-2.014 0.301,-2.543c-0.491,-0.342 -1.079,-0.257 -1.85,-0.076c-0.123,-0.796 0.503,-0.836 1.057,-0.949c0.049,-0.749 -0.813,-0.686 -1.207,-0.494c0.164,-0.395 0.255,-1.03 -0.367,-0.987l0,-0.988l1.272,0ZM9.457,1.063c-0.022,1.042 -1.646,0.975 -1.699,0l1.699,0ZM0.093,25.193l57.268,0l0,-25.086l-57.268,0l0,25.086Z" style="fill:#231f20;fill-rule:nonzero;"/><path d="M13.155,21.998l0,-0.974l-0.938,0l0,0.974l-0.702,0l0,-2.473l0.702,0l0,0.965l0.938,0l0,-0.965l0.702,0l0,2.473l-0.702,0Z" style="fill:#231f20;fill-rule:nonzero;"/><path d="M15.781,20.046c-0.485,0 -0.675,0.294 -0.675,0.711c0,0.417 0.19,0.729 0.648,0.729c0.503,0 0.684,-0.299 0.684,-0.724c0,-0.422 -0.2,-0.716 -0.657,-0.716M15.745,22.039c-0.897,0 -1.345,-0.494 -1.345,-1.277c0,-0.834 0.543,-1.269 1.413,-1.269c0.928,0 1.336,0.507 1.336,1.273c0,0.82 -0.498,1.273 -1.404,1.273" style="fill:#231f20;fill-rule:nonzero;"/><path d="M18.851,20.073l0,1.925l-0.702,0l0,-1.925l-0.774,0l0,-0.548l2.25,0l0,0.548l-0.774,0Z" style="fill:#231f20;fill-rule:nonzero;"/><path d="M20.032,21.998l0,-2.473l1.861,0l0,0.548l-1.159,0l0,0.426l1.082,0l0,0.521l-1.082,0l0,0.43l1.241,0l0,0.548l-1.943,0Z" style="fill:#231f20;fill-rule:nonzero;"/><path d="M22.564,21.998l0,-2.473l0.702,0l0,1.92l1.069,0l0,0.553l-1.771,0Z" style="fill:#231f20;fill-rule:nonzero;"/><path d="M24.742,21.998l0,-2.473l1.861,0l0,0.548l-1.159,0l0,0.426l1.082,0l0,0.521l-1.082,0l0,0.43l1.241,0l0,0.548l-1.943,0Z" style="fill:#231f20;fill-rule:nonzero;"/><path d="M28.061,22.034c-0.467,0 -0.707,-0.032 -0.974,-0.154l0.195,-0.534c0.303,0.09 0.471,0.117 0.77,0.117c0.335,0 0.43,-0.086 0.43,-0.177c0,-0.321 -1.327,-0.199 -1.327,-1.086c0,-0.499 0.562,-0.689 1.064,-0.689c0.394,0 0.544,0.014 0.897,0.145l-0.158,0.512c-0.258,-0.063 -0.449,-0.095 -0.72,-0.095c-0.272,0 -0.304,0.072 -0.304,0.127c0,0.303 1.35,0.294 1.35,1.064c0,0.566 -0.639,0.77 -1.223,0.77" style="fill:#231f20;fill-rule:nonzero;"/><path d="M33.767,20.947l-0.086,0c-0.077,0.725 -0.625,1.105 -1.318,1.105c-0.802,0 -1.268,-0.489 -1.268,-1.268c0,-0.82 0.539,-1.322 1.309,-1.322c0.33,0 0.389,0.018 0.706,0.14l-0.217,0.493c-0.213,-0.072 -0.313,-0.067 -0.503,-0.067c-0.425,0 -0.579,0.326 -0.579,0.738c0,0.435 0.163,0.715 0.588,0.715c0.363,0 0.517,-0.208 0.557,-0.534l-0.747,0l0,-0.552l1.499,0c0.118,0 0.258,-0.023 0.344,-0.141l0.358,0.362c-0.122,0.227 -0.267,0.326 -0.643,0.331" style="fill:#231f20;fill-rule:nonzero;"/><path d="M37.149,20.087l-0.231,0l0,0.593l0.145,0c0.335,0 0.448,-0.127 0.448,-0.308c0,-0.204 -0.068,-0.285 -0.362,-0.285M38.494,22.043c-0.457,-0.018 -0.738,-0.195 -0.978,-0.457c0,0 -0.236,-0.258 -0.363,-0.403l-0.108,0l-0.127,0l0,0.815l-0.706,0l0,-2.473l1.014,0c0.571,0 1.005,0.263 1.005,0.833c0,0.263 -0.122,0.494 -0.366,0.648c0.086,0.091 0.212,0.222 0.212,0.222c0.141,0.145 0.241,0.208 0.548,0.286l-0.131,0.529Z" style="fill:#231f20;fill-rule:nonzero;"/><path d="M39.064,21.998l0,-2.473l1.861,0l0,0.548l-1.159,0l0,0.426l1.083,0l0,0.521l-1.083,0l0,0.43l1.241,0l0,0.548l-1.943,0Z" style="fill:#231f20;fill-rule:nonzero;"/><path d="M42.384,22.034c-0.467,0 -0.707,-0.032 -0.974,-0.154l0.195,-0.534c0.303,0.09 0.471,0.117 0.77,0.117c0.335,0 0.43,-0.086 0.43,-0.177c0,-0.321 -1.327,-0.199 -1.327,-1.086c0,-0.499 0.562,-0.689 1.064,-0.689c0.394,0 0.544,0.014 0.897,0.145l-0.158,0.512c-0.258,-0.063 -0.449,-0.095 -0.72,-0.095c-0.272,0 -0.304,0.072 -0.304,0.127c0,0.303 1.35,0.294 1.35,1.064c0,0.566 -0.639,0.77 -1.223,0.77" style="fill:#231f20;fill-rule:nonzero;"/><path d="M45.305,20.046c-0.484,0 -0.675,0.294 -0.675,0.711c0,0.417 0.191,0.729 0.648,0.729c0.503,0 0.684,-0.299 0.684,-0.724c0,-0.422 -0.2,-0.716 -0.657,-0.716M45.269,22.039c-0.897,0 -1.345,-0.494 -1.345,-1.277c0,-0.834 0.543,-1.269 1.413,-1.269c0.928,0 1.336,0.507 1.336,1.273c0,0.82 -0.498,1.273 -1.404,1.273" style="fill:#231f20;fill-rule:nonzero;"/><path d="M48.153,20.087l-0.231,0l0,0.593l0.145,0c0.335,0 0.448,-0.127 0.448,-0.308c0,-0.204 -0.067,-0.285 -0.362,-0.285M49.498,22.043c-0.457,-0.018 -0.738,-0.195 -0.978,-0.457c0,0 -0.236,-0.258 -0.362,-0.403l-0.109,0l-0.127,0l0,0.815l-0.706,0l0,-2.473l1.014,0c0.571,0 1.006,0.263 1.006,0.833c0,0.263 -0.123,0.494 -0.367,0.648c0.086,0.091 0.213,0.222 0.213,0.222c0.14,0.145 0.24,0.208 0.547,0.286l-0.131,0.529Z" style="fill:#231f20;fill-rule:nonzero;"/><path d="M51.228,20.073l0,1.925l-0.702,0l0,-1.925l-0.774,0l0,-0.548l2.25,0l0,0.548l-0.774,0Z" style="fill:#231f20;fill-rule:nonzero;"/><path d="M53.197,22.034c-0.467,0 -0.707,-0.032 -0.974,-0.154l0.195,-0.534c0.303,0.09 0.471,0.117 0.77,0.117c0.335,0 0.43,-0.086 0.43,-0.177c0,-0.321 -1.327,-0.199 -1.327,-1.086c0,-0.499 0.562,-0.689 1.065,-0.689c0.393,0 0.543,0.014 0.896,0.145l-0.159,0.512c-0.258,-0.063 -0.448,-0.095 -0.719,-0.095c-0.272,0 -0.304,0.072 -0.304,0.127c0,0.303 1.35,0.294 1.35,1.064c0,0.566 -0.639,0.77 -1.223,0.77" style="fill:#231f20;fill-rule:nonzero;"/></g></svg>