<?xml version="1.0" standalone="no"?><!DOCTYPE svg PUBLIC "-//W3C//DTD SVG 1.1//EN" "http://www.w3.org/Graphics/SVG/1.1/DTD/svg11.dtd"><svg width="100%" height="100%" viewBox="0 0 73 29" version="1.1" xmlns="http://www.w3.org/2000/svg" xmlns:xlink="http://www.w3.org/1999/xlink" xml:space="preserve" style="fill-rule:evenodd;clip-rule:evenodd;stroke-linejoin:round;stroke-miterlimit:1.41421;"><g><path d="M72.167,22.003l-0.062,0l0,0.207l0.059,0c0.079,0 0.117,-0.034 0.117,-0.105c0,-0.073 -0.033,-0.102 -0.114,-0.102M72.325,22.631l-0.2,-0.332l-0.02,0l0,0.332l-0.161,0l0,-0.734l0.24,0c0.198,0 0.271,0.052 0.271,0.189c0,0.105 -0.049,0.166 -0.162,0.195l0.23,0.35l-0.198,0ZM72.21,21.755c-0.282,0 -0.51,0.23 -0.51,0.512c0,0.282 0.23,0.512 0.51,0.512c0.284,0 0.512,-0.228 0.512,-0.512c0,-0.282 -0.228,-0.512 -0.512,-0.512M72.21,22.878c-0.341,0 -0.617,-0.273 -0.617,-0.611c0,-0.337 0.276,-0.611 0.617,-0.611c0.343,0 0.619,0.274 0.619,0.611c0,0.338 -0.276,0.611 -0.619,0.611" style="fill:#ab9f94;fill-rule:nonzero;"/><path d="M48.689,16.469c-2.203,0 -3.32,-1.117 -3.32,-3.32c0,-2.292 1.328,-3.649 3.561,-3.649c0.5,0 0.885,0.068 1.808,0.328l0,0.702c-0.491,-0.116 -1.058,-0.183 -1.577,-0.183c-1.685,0 -2.551,0.915 -2.551,2.676c0,1.8 0.75,2.609 2.416,2.609c0.192,0 0.491,-0.029 0.674,-0.067l0,-2.301l1.125,0l0,2.869c-1.221,0.278 -1.626,0.336 -2.136,0.336" style="fill:#ab9f94;fill-rule:nonzero;"/><path d="M53.933,12.292c-0.212,0 -0.52,0.039 -0.732,0.087l0,4.004l-1.144,0l0,-4.929l1.115,0l0,0.366c0.511,-0.25 1.049,-0.433 1.251,-0.433c0.212,0 0.377,0.038 0.54,0.115l0,1.001c-0.289,-0.144 -0.627,-0.211 -1.03,-0.211" style="fill:#ab9f94;fill-rule:nonzero;"/><path d="M58.196,14.072c-0.558,0.019 -0.644,0.019 -0.905,0.058c-0.52,0.068 -0.788,0.337 -0.788,0.761c0,0.519 0.317,0.779 0.943,0.779c0.24,0 0.5,-0.029 0.75,-0.087l0,-1.511ZM58.225,16.382l0,-0.308c-0.741,0.298 -1.03,0.376 -1.395,0.376c-0.906,0 -1.492,-0.578 -1.492,-1.454c0,-0.885 0.51,-1.376 1.521,-1.472c0.422,-0.039 0.817,-0.058 1.337,-0.058l0,-0.529c0,-0.558 -0.25,-0.779 -0.895,-0.779c-0.433,0 -1.049,0.067 -1.531,0.154l0,-0.626c0.925,-0.231 1.482,-0.327 1.925,-0.327c0.511,0 0.982,0.134 1.242,0.385c0.289,0.26 0.376,0.606 0.376,1.347l0,3.291l-1.088,0Z" style="fill:#ab9f94;fill-rule:nonzero;"/><path d="M63.7,16.383l0,-3.032c0,-0.866 -0.25,-1.155 -1.01,-1.155c-0.27,0 -0.558,0.039 -0.944,0.115l0,4.072l-1.146,0l0,-4.928l1.117,0l0,0.308c0.866,-0.327 1.194,-0.414 1.627,-0.414c0.462,0 0.923,0.192 1.163,0.481c0.251,0.308 0.338,0.665 0.338,1.377l0,3.176l-1.145,0Z" style="fill:#ab9f94;fill-rule:nonzero;"/><path d="M69.263,12.205c-0.184,-0.029 -0.434,-0.058 -0.655,-0.058c-0.991,0 -1.548,0.655 -1.548,1.81c0,1.059 0.518,1.665 1.424,1.665c0.259,0 0.49,-0.028 0.779,-0.086l0,-3.331ZM69.282,16.382l0,-0.298c-0.77,0.309 -1.088,0.395 -1.415,0.395c-1.221,0 -2.011,-0.943 -2.011,-2.426c0,-1.521 1,-2.657 2.348,-2.657c0.356,0 0.674,0.068 1.059,0.231l0,-2.695l1.144,0l0,7.45l-1.125,0Z" style="fill:#ab9f94;fill-rule:nonzero;"/><path d="M26.346,19.25l0,1.122l1.257,0l0,0.588l-1.257,0l0,1.851l-0.888,0l0,-4.149l2.474,0l0,0.588l-1.586,0Z" style="fill:#ab9f94;fill-rule:nonzero;"/><path d="M28.39,19.779l0.858,0l0,3.032l-0.858,0l0,-3.032ZM28.819,19.403c-0.371,0 -0.512,-0.111 -0.512,-0.405c0,-0.288 0.141,-0.4 0.512,-0.4c0.375,0 0.516,0.105 0.516,0.4c0,0.294 -0.141,0.405 -0.516,0.405" style="fill:#ab9f94;fill-rule:nonzero;"/><path d="M31.233,20.179c-0.382,0 -0.552,0.247 -0.552,0.793l1.051,0c0,-0.587 -0.13,-0.793 -0.499,-0.793M30.681,21.448c0,0.624 0.264,0.858 0.969,0.858c0.223,0 0.464,-0.017 0.781,-0.058l0,0.44c-0.587,0.13 -0.893,0.177 -1.122,0.177c-0.957,0 -1.481,-0.535 -1.481,-1.517c0,-1.011 0.553,-1.628 1.452,-1.628c0.628,0 1.046,0.283 1.21,0.824c0.064,0.199 0.082,0.387 0.082,0.904l-1.891,0Z" style="fill:#ab9f94;fill-rule:nonzero;"/><path d="M33.948,22.864c-0.288,0 -0.547,-0.041 -0.993,-0.164l0,-0.476c0.311,0.076 0.582,0.111 0.858,0.111c0.34,0 0.493,-0.099 0.493,-0.322c0,-0.136 -0.076,-0.224 -0.264,-0.312l-0.458,-0.212c-0.43,-0.2 -0.611,-0.453 -0.611,-0.853c0,-0.569 0.411,-0.91 1.098,-0.91c0.253,0 0.482,0.041 0.917,0.164l0,0.471c-0.23,-0.065 -0.523,-0.106 -0.746,-0.106c-0.324,0 -0.464,0.087 -0.464,0.282c0,0.141 0.082,0.223 0.341,0.335l0.458,0.205c0.387,0.171 0.557,0.424 0.557,0.83c0,0.592 -0.452,0.957 -1.186,0.957" style="fill:#ab9f94;fill-rule:nonzero;"/><path d="M36.703,22.853c-0.675,0 -0.923,-0.248 -0.923,-0.917l0,-1.656l-0.375,0l0,-0.501l0.375,0l0,-0.64l0.858,-0.305l0,0.945l0.875,0l0,0.501l-0.875,0l0,1.527c0,0.347 0.113,0.459 0.47,0.459c0.123,0 0.218,-0.007 0.405,-0.036l0,0.471c-0.451,0.117 -0.628,0.152 -0.81,0.152" style="fill:#ab9f94;fill-rule:nonzero;"/><path d="M39.605,21.395c-0.275,0.012 -0.353,0.012 -0.482,0.03c-0.276,0.041 -0.423,0.187 -0.423,0.435c0,0.288 0.177,0.435 0.517,0.435c0.124,0 0.264,-0.018 0.388,-0.047l0,-0.853ZM39.628,22.812l0,-0.194c-0.458,0.188 -0.634,0.235 -0.857,0.235c-0.559,0 -0.922,-0.364 -0.922,-0.923c0,-0.569 0.323,-0.881 0.975,-0.94c0.246,-0.023 0.481,-0.036 0.781,-0.036l0,-0.252c0,-0.3 -0.153,-0.417 -0.529,-0.417c-0.282,0 -0.646,0.035 -0.963,0.094l0,-0.452c0.587,-0.148 0.957,-0.206 1.244,-0.206c0.348,0 0.641,0.082 0.812,0.235c0.188,0.165 0.259,0.394 0.259,0.852l0,2.004l-0.8,0Z" style="fill:#ab9f94;fill-rule:nonzero;"/><path d="M43.764,19.321l-0.499,1.71l1.011,0l-0.512,-1.71ZM44.816,22.812l-0.377,-1.216l-1.332,0l-0.359,1.216l-0.788,0l1.416,-4.149l0.999,0l1.369,4.149l-0.928,0Z" style="fill:#ab9f94;fill-rule:nonzero;"/><path d="M49.928,22.812l0,-1.893c0,-0.434 -0.141,-0.587 -0.558,-0.587c-0.142,0 -0.259,0.018 -0.518,0.07c0.015,0.048 0.036,0.114 0.036,0.287l0,2.123l-0.857,0l0,-1.98c0,-0.372 -0.143,-0.5 -0.535,-0.5c-0.141,0 -0.33,0.022 -0.5,0.058l0,2.422l-0.858,0l0,-3.032l0.834,0l0,0.194c0.565,-0.212 0.759,-0.26 1.011,-0.26c0.294,0 0.517,0.089 0.688,0.264c0.635,-0.211 0.846,-0.264 1.104,-0.264c0.729,0 1.011,0.312 1.011,1.128l0,1.97l-0.858,0Z" style="fill:#ab9f94;fill-rule:nonzero;"/><path d="M52.759,20.179c-0.381,0 -0.552,0.247 -0.552,0.793l1.052,0c0,-0.587 -0.129,-0.793 -0.5,-0.793M52.207,21.448c0,0.624 0.265,0.858 0.97,0.858c0.223,0 0.464,-0.017 0.781,-0.058l0,0.44c-0.587,0.13 -0.892,0.177 -1.122,0.177c-0.957,0 -1.481,-0.535 -1.481,-1.517c0,-1.011 0.553,-1.628 1.451,-1.628c0.628,0 1.047,0.283 1.212,0.824c0.064,0.199 0.081,0.387 0.081,0.904l-1.892,0Z" style="fill:#ab9f94;fill-rule:nonzero;"/><path d="M55.949,20.384c-0.118,0 -0.317,0.023 -0.428,0.053l0,2.374l-0.859,0l0,-3.032l0.834,0l0,0.229c0.347,-0.171 0.641,-0.27 0.771,-0.27c0.134,0 0.229,0.017 0.335,0.07l0,0.711c-0.201,-0.094 -0.406,-0.135 -0.653,-0.135" style="fill:#ab9f94;fill-rule:nonzero;"/><path d="M57.013,19.779l0.857,0l0,3.032l-0.857,0l0,-3.032ZM57.441,19.403c-0.37,0 -0.511,-0.111 -0.511,-0.405c0,-0.288 0.141,-0.4 0.511,-0.4c0.377,0 0.518,0.105 0.518,0.4c0,0.294 -0.141,0.405 -0.518,0.405" style="fill:#ab9f94;fill-rule:nonzero;"/><path d="M59.861,22.859c-0.893,0 -1.416,-0.558 -1.416,-1.51c0,-1 0.611,-1.617 1.592,-1.617c0.23,0 0.418,0.036 0.858,0.147l0,0.488c-0.205,-0.053 -0.405,-0.077 -0.628,-0.077c-0.623,0 -0.935,0.335 -0.935,1.005c0,0.671 0.301,0.976 0.958,0.976c0.189,0 0.453,-0.023 0.605,-0.052l0,0.463c-0.587,0.142 -0.787,0.177 -1.034,0.177" style="fill:#ab9f94;fill-rule:nonzero;"/><path d="M62.999,21.395c-0.276,0.012 -0.352,0.012 -0.481,0.03c-0.277,0.041 -0.424,0.187 -0.424,0.435c0,0.288 0.177,0.435 0.517,0.435c0.124,0 0.266,-0.018 0.388,-0.047l0,-0.853ZM63.022,22.812l0,-0.194c-0.458,0.188 -0.634,0.235 -0.858,0.235c-0.558,0 -0.922,-0.364 -0.922,-0.923c0,-0.569 0.323,-0.881 0.976,-0.94c0.247,-0.023 0.481,-0.036 0.781,-0.036l0,-0.252c0,-0.3 -0.153,-0.417 -0.528,-0.417c-0.282,0 -0.647,0.035 -0.964,0.094l0,-0.452c0.587,-0.148 0.958,-0.206 1.245,-0.206c0.347,0 0.64,0.082 0.811,0.235c0.188,0.165 0.259,0.394 0.259,0.852l0,2.004l-0.8,0Z" style="fill:#ab9f94;fill-rule:nonzero;"/><path d="M66.442,22.812l0,-1.893c0,-0.434 -0.147,-0.587 -0.553,-0.587c-0.14,0 -0.293,0.018 -0.487,0.058l0,2.422l-0.858,0l0,-3.032l0.835,0l0,0.194c0.54,-0.207 0.74,-0.26 1.004,-0.26c0.289,0 0.564,0.118 0.711,0.3c0.153,0.189 0.206,0.401 0.206,0.828l0,1.97l-0.858,0Z" style="fill:#ab9f94;fill-rule:nonzero;"/><path d="M69.585,21.395c-0.276,0.012 -0.352,0.012 -0.481,0.03c-0.277,0.041 -0.423,0.187 -0.423,0.435c0,0.288 0.176,0.435 0.517,0.435c0.123,0 0.263,-0.018 0.387,-0.047l0,-0.853ZM69.609,22.812l0,-0.194c-0.459,0.188 -0.635,0.235 -0.858,0.235c-0.558,0 -0.923,-0.364 -0.923,-0.923c0,-0.569 0.323,-0.881 0.976,-0.94c0.246,-0.023 0.481,-0.036 0.781,-0.036l0,-0.252c0,-0.3 -0.152,-0.417 -0.529,-0.417c-0.281,0 -0.646,0.035 -0.963,0.094l0,-0.452c0.588,-0.148 0.957,-0.206 1.246,-0.206c0.346,0 0.64,0.082 0.81,0.235c0.188,0.165 0.258,0.394 0.258,0.852l0,2.004l-0.798,0Z" style="fill:#ab9f94;fill-rule:nonzero;"/><path d="M27.015,28.631l0,-1.088l-1.102,0l0,1.088l-0.456,0l0,-2.424l0.456,0l0,1.022l1.102,0l0,-1.022l0.455,0l0,2.424l-0.455,0Z" style="fill:#ab9f94;fill-rule:nonzero;"/><path d="M30.029,26.483c-0.424,0 -0.685,0.325 -0.685,0.944c0,0.632 0.248,0.935 0.682,0.935c0.418,0 0.685,-0.325 0.685,-0.957c0,-0.615 -0.257,-0.922 -0.682,-0.922M30.021,28.673c-0.722,0 -1.156,-0.438 -1.156,-1.211c0,-0.803 0.46,-1.294 1.161,-1.294c0.717,0 1.155,0.437 1.155,1.209c0,0.813 -0.466,1.296 -1.16,1.296" style="fill:#ab9f94;fill-rule:nonzero;"/><path d="M33.382,26.519l0,2.112l-0.455,0l0,-2.112l-0.709,0l0,-0.311l1.873,0l0,0.311l-0.709,0Z" style="fill:#ab9f94;fill-rule:nonzero;"/><path d="M35.345,28.631l0,-2.424l1.467,0l0,0.306l-1.01,0l0,0.716l0.857,0l0,0.302l-0.857,0l0,0.798l1.068,0l0,0.302l-1.525,0Z" style="fill:#ab9f94;fill-rule:nonzero;"/><path d="M38.175,28.631l0,-2.424l0.456,0l0,2.122l0.934,0l0,0.302l-1.39,0Z" style="fill:#ab9f94;fill-rule:nonzero;"/><path d="M41.403,28.663c-0.173,0 -0.384,-0.041 -0.701,-0.127l0,-0.284c0.258,0.059 0.474,0.099 0.645,0.099c0.191,0 0.497,-0.026 0.497,-0.315c0,-0.199 -0.107,-0.276 -0.27,-0.356l-0.392,-0.205c-0.281,-0.148 -0.447,-0.32 -0.447,-0.646c0,-0.46 0.352,-0.649 0.807,-0.649c0.203,0 0.388,0.041 0.659,0.122l0,0.28c-0.22,-0.059 -0.397,-0.091 -0.573,-0.095c-0.261,-0.005 -0.456,0.05 -0.456,0.28c0,0.149 0.095,0.243 0.335,0.36l0.328,0.163c0.286,0.145 0.457,0.308 0.457,0.664c0,0.478 -0.38,0.709 -0.889,0.709" style="fill:#ab9f94;fill-rule:nonzero;"/><path d="M46.353,26.203c-0.201,0 -0.314,0.113 -0.314,0.313c0,0.147 0.06,0.267 0.204,0.418l0.102,0.108c0.229,-0.15 0.319,-0.29 0.319,-0.504c0,-0.225 -0.101,-0.335 -0.311,-0.335M46.107,27.4c-0.173,0.106 -0.244,0.238 -0.244,0.44c0,0.331 0.207,0.521 0.576,0.521c0.173,0 0.319,-0.034 0.437,-0.102l-0.769,-0.859ZM47.203,28.631l-0.125,-0.143c-0.187,0.121 -0.435,0.185 -0.718,0.185c-0.592,0 -0.956,-0.287 -0.956,-0.749c0,-0.328 0.12,-0.489 0.537,-0.712l-0.083,-0.094c-0.161,-0.18 -0.251,-0.37 -0.251,-0.549c0,-0.392 0.282,-0.634 0.734,-0.634c0.444,0 0.702,0.218 0.702,0.599c0,0.309 -0.141,0.489 -0.544,0.682l0.715,0.79c0.094,-0.113 0.125,-0.234 0.125,-0.497l0,-0.12l0.409,0c0,0.033 0,0.011 0.005,0.132c0.006,0.305 -0.095,0.534 -0.317,0.726l0.354,0.384l-0.587,0Z" style="fill:#ab9f94;fill-rule:nonzero;"/><path d="M51.525,26.478l-0.326,0l0,0.786l0.316,0c0.289,0 0.434,-0.131 0.434,-0.398c0,-0.28 -0.118,-0.388 -0.424,-0.388M52.102,28.631l-0.695,-1.127l-0.208,0l0,1.127l-0.452,0l0,-2.424l0.795,0c0.342,0 0.483,0.031 0.614,0.109c0.167,0.094 0.258,0.27 0.258,0.5c0,0.429 -0.317,0.615 -0.546,0.645l0.779,1.17l-0.545,0Z" style="fill:#ab9f94;fill-rule:nonzero;"/><path d="M53.893,28.631l0,-2.424l1.467,0l0,0.306l-1.012,0l0,0.716l0.859,0l0,0.302l-0.859,0l0,0.798l1.071,0l0,0.302l-1.526,0Z" style="fill:#ab9f94;fill-rule:nonzero;"/><path d="M57.314,28.663c-0.173,0 -0.384,-0.041 -0.7,-0.127l0,-0.284c0.257,0.059 0.474,0.099 0.645,0.099c0.191,0 0.497,-0.026 0.497,-0.315c0,-0.199 -0.108,-0.276 -0.27,-0.356l-0.393,-0.205c-0.281,-0.148 -0.449,-0.32 -0.449,-0.646c0,-0.46 0.354,-0.649 0.81,-0.649c0.203,0 0.388,0.041 0.658,0.122l0,0.28c-0.22,-0.059 -0.396,-0.091 -0.573,-0.095c-0.261,-0.005 -0.455,0.05 -0.455,0.28c0,0.149 0.094,0.243 0.335,0.36l0.328,0.163c0.286,0.145 0.456,0.308 0.456,0.664c0,0.478 -0.379,0.709 -0.889,0.709" style="fill:#ab9f94;fill-rule:nonzero;"/><path d="M60.553,26.483c-0.424,0 -0.686,0.325 -0.686,0.944c0,0.632 0.249,0.935 0.682,0.935c0.42,0 0.686,-0.325 0.686,-0.957c0,-0.615 -0.256,-0.922 -0.682,-0.922M60.545,28.673c-0.722,0 -1.156,-0.438 -1.156,-1.211c0,-0.803 0.46,-1.294 1.16,-1.294c0.718,0 1.157,0.437 1.157,1.209c0,0.813 -0.466,1.296 -1.161,1.296" style="fill:#ab9f94;fill-rule:nonzero;"/><path d="M63.875,26.478l-0.325,0l0,0.786l0.317,0c0.288,0 0.433,-0.131 0.433,-0.398c0,-0.28 -0.118,-0.388 -0.425,-0.388M64.453,28.631l-0.695,-1.127l-0.208,0l0,1.127l-0.451,0l0,-2.424l0.794,0c0.342,0 0.483,0.031 0.615,0.109c0.165,0.094 0.257,0.27 0.257,0.5c0,0.429 -0.316,0.615 -0.547,0.645l0.781,1.17l-0.546,0Z" style="fill:#ab9f94;fill-rule:nonzero;"/><path d="M67.094,26.519l0,2.112l-0.457,0l0,-2.112l-0.708,0l0,-0.311l1.873,0l0,0.311l-0.708,0Z" style="fill:#ab9f94;fill-rule:nonzero;"/><path d="M69.607,28.663c-0.173,0 -0.384,-0.041 -0.701,-0.127l0,-0.284c0.257,0.059 0.475,0.099 0.646,0.099c0.19,0 0.497,-0.026 0.497,-0.315c0,-0.199 -0.109,-0.276 -0.271,-0.356l-0.392,-0.205c-0.28,-0.148 -0.448,-0.32 -0.448,-0.646c0,-0.46 0.352,-0.649 0.809,-0.649c0.202,0 0.388,0.041 0.658,0.122l0,0.28c-0.22,-0.059 -0.396,-0.091 -0.573,-0.095c-0.261,-0.005 -0.455,0.05 -0.455,0.28c0,0.149 0.093,0.243 0.334,0.36l0.329,0.163c0.284,0.145 0.456,0.308 0.456,0.664c0,0.478 -0.38,0.709 -0.889,0.709" style="fill:#ab9f94;fill-rule:nonzero;"/><path d="M36.149,16.997c-0.274,-0.098 -0.522,-0.254 -0.742,-0.451c-0.696,-0.625 -1.106,-1.671 -1.106,-2.655c0,-1.461 0.857,-2.951 2.169,-3.56c-1.238,0.554 -2.631,1.046 -4.147,1.478c-0.098,0.366 -0.15,0.743 -0.15,1.117c0,1.66 0.929,2.984 2.217,3.445l1.759,0.626Z" style="fill:#c7b08a;fill-rule:nonzero;"/><path d="M2.807,27.555l-1.569,-1.014c0.443,0.286 1.045,0.471 1.863,0.471c4.92,0 13.117,-9.662 14.842,-11.596c1.224,-1.374 3.206,-3.603 4.913,-5.538c1.708,-1.934 8.346,-9.858 13.617,-9.858c0.48,0 0.912,0.046 1.293,0.134l3.284,0.754c-0.187,-0.042 -0.388,-0.064 -0.604,-0.064c-4.365,0 -11.58,8.597 -13.094,10.531c-1.61,2.059 -3.191,3.946 -4.789,5.881c-1.599,1.934 -8.694,10.875 -17.393,10.875c-1.024,0 -1.798,-0.211 -2.363,-0.576" style="fill:#c7b08a;fill-rule:nonzero;"/><path d="M27.352,11.376c-0.486,0.621 -0.968,1.226 -1.45,1.822c4.096,-0.66 7.759,-1.603 10.6,-2.881l-2.707,-0.814c-1.766,0.775 -3.913,1.42 -6.443,1.873" style="fill:#ab9f94;fill-rule:nonzero;"/><path d="M35.406,16.546c1.486,0 2.713,-0.972 3.339,-2.242c0,0 0.068,0.323 0.068,0.653c0,1.258 -0.789,2.156 -1.992,2.156c-0.237,0 -0.462,-0.041 -0.672,-0.116c-0.273,-0.098 -0.522,-0.254 -0.743,-0.451" style="fill:#ab9f94;fill-rule:nonzero;"/><path d="M40.446,0.844c0.216,0 0.417,0.023 0.603,0.065c1.006,0.229 1.565,1.053 1.565,2.193c0,2.507 -2.356,5.306 -6.706,5.306c0,0 4.027,-2.184 4.027,-5.668c0,-0.701 -0.202,-1.288 -0.601,-1.734c0.386,-0.106 0.758,-0.162 1.112,-0.162" style="fill:#ab9f94;fill-rule:nonzero;"/><path d="M1.238,26.542c0.241,0.156 0.531,0.282 0.878,0.364c-0.403,-0.551 -0.578,-1.251 -0.578,-2.023c0,-5 8.474,-8.987 17.477,-10.671c0.536,-0.603 1.131,-1.273 1.743,-1.962c-9.681,1.436 -20.706,4.999 -20.706,11.782c0,0.69 0.178,1.859 1.186,2.51" style="fill:#ab9f94;fill-rule:nonzero;"/></g></svg>