<?xml version="1.0" standalone="no"?><!DOCTYPE svg PUBLIC "-//W3C//DTD SVG 1.1//EN" "http://www.w3.org/Graphics/SVG/1.1/DTD/svg11.dtd"><svg width="100%" height="100%" viewBox="0 0 57 26" version="1.1" xmlns="http://www.w3.org/2000/svg" xmlns:xlink="http://www.w3.org/1999/xlink" xml:space="preserve" style="fill-rule:evenodd;clip-rule:evenodd;stroke-linejoin:round;stroke-miterlimit:1.41421;"><g><path d="M5.826,7.761c-0.134,0 -0.152,0.142 -0.159,0.201c-0.038,0.244 -0.167,0.538 -0.31,0.715c-0.271,0.327 -0.751,0.352 -1.453,0.352c-0.987,0 -1.268,-0.095 -1.444,-0.269c-0.217,-0.217 -0.256,-1.108 -0.256,-2.786l0,-2.191c0,-1.919 0,-2.265 0.024,-2.658c0.025,-0.445 0.133,-0.604 0.44,-0.657c0.14,-0.024 0.31,-0.037 0.4,-0.037c0.084,0 0.145,-0.051 0.145,-0.121c0,-0.148 -0.172,-0.148 -0.245,-0.148c-0.262,0 -0.786,0.019 -1.1,0.031c-0.124,0.004 -0.212,0.007 -0.229,0.007c-0.015,0 -0.075,-0.002 -0.164,-0.006c-0.264,-0.01 -0.811,-0.032 -1.227,-0.032c-0.075,0 -0.245,0 -0.245,0.148c0,0.07 0.061,0.121 0.146,0.121c0.11,0 0.315,0.013 0.408,0.036c0.393,0.083 0.469,0.27 0.492,0.658c0.023,0.393 0.023,0.739 0.023,2.658l0,2.166c0,1.203 0,2.153 -0.059,2.667c-0.053,0.381 -0.12,0.596 -0.321,0.636c-0.136,0.03 -0.269,0.048 -0.36,0.048c-0.108,0 -0.145,0.066 -0.145,0.123c0,0.146 0.172,0.146 0.245,0.146c0.192,0 0.477,-0.014 0.702,-0.025c0.171,0 0.324,-0.006 0.419,-0.01c0.04,-0.001 0.071,-0.002 0.086,-0.002c0.338,0 0.713,0.01 1.253,0.037c0.114,0.002 0.231,0.005 0.356,0.008c0.444,0.013 0.996,0.029 1.691,0.029c0.662,0 0.725,-0.051 0.821,-0.368c0.101,-0.364 0.187,-1.11 0.187,-1.244c0,-0.104 0,-0.233 -0.121,-0.233" style="fill:#d9dcec;fill-rule:nonzero;"/><path d="M9.965,9.3c-0.107,0 -0.372,-0.023 -0.547,-0.048c-0.318,-0.044 -0.4,-0.257 -0.44,-0.636c-0.061,-0.514 -0.061,-1.512 -0.061,-2.667l0,-2.166c0,-1.919 0,-2.265 0.025,-2.658c0.025,-0.439 0.13,-0.604 0.416,-0.657c0.149,-0.025 0.217,-0.037 0.299,-0.037c0.085,0 0.147,-0.051 0.147,-0.121c0,-0.148 -0.172,-0.148 -0.245,-0.148c-0.264,0 -0.727,0.019 -1.002,0.031c-0.11,0.004 -0.187,0.007 -0.205,0.007c-0.017,0 -0.09,-0.003 -0.195,-0.007c-0.264,-0.01 -0.756,-0.031 -1.048,-0.031c-0.075,0 -0.245,0 -0.245,0.148c0,0.07 0.061,0.121 0.145,0.121c0.073,0 0.233,0.011 0.371,0.049c0.248,0.056 0.358,0.243 0.383,0.645c0.023,0.393 0.023,0.739 0.023,2.658l0,2.166c0,1.203 0,2.153 -0.061,2.667c-0.053,0.381 -0.118,0.596 -0.32,0.636c-0.134,0.031 -0.268,0.048 -0.359,0.048c-0.108,0 -0.146,0.066 -0.146,0.123c0,0.146 0.172,0.146 0.245,0.146c0.263,0 0.726,-0.019 1.001,-0.03c0.111,-0.004 0.187,-0.007 0.206,-0.007c0.013,0 0.066,0.002 0.146,0.004c0.275,0.011 0.847,0.033 1.369,0.033c0.213,0 0.244,-0.092 0.244,-0.146c0,-0.057 -0.038,-0.123 -0.146,-0.123" style="fill:#d9dcec;fill-rule:nonzero;"/><path d="M20.455,0.162c-0.245,0 -0.579,0.019 -0.778,0.029c-0.092,0.005 -0.159,0.009 -0.181,0.009c-0.052,0 -0.156,-0.004 -0.292,-0.01c-0.251,-0.012 -0.597,-0.028 -0.916,-0.028c-0.127,0 -0.318,0 -0.318,0.147c0,0.081 0.061,0.122 0.184,0.122c0.131,0 0.312,0 0.446,0.045c0.12,0.06 0.133,0.188 0.133,0.239c0,0.114 -0.059,0.302 -0.108,0.454c-0.256,0.833 -1.836,4.966 -2.586,6.721l-2.324,-6.194l-0.006,-0.017c-0.173,-0.45 -0.322,-0.838 -0.322,-0.987c0,-0.071 0.016,-0.151 0.131,-0.203c0.095,-0.042 0.294,-0.058 0.448,-0.058c0.114,0 0.171,-0.044 0.171,-0.134c0,-0.112 -0.152,-0.135 -0.38,-0.135c-0.31,0 -0.661,0.018 -0.893,0.028c-0.119,0.006 -0.211,0.01 -0.252,0.01c-0.05,0 -0.159,-0.004 -0.305,-0.01c-0.295,-0.01 -0.74,-0.028 -1.136,-0.028c-0.163,0 -0.367,0 -0.367,0.135c0,0.084 0.054,0.134 0.145,0.134c0.076,0 0.278,0 0.456,0.048c0.403,0.116 0.582,0.224 0.855,0.921l3.017,7.547l0.029,0.076c0.218,0.551 0.285,0.718 0.458,0.718c0.124,0 0.174,-0.11 0.358,-0.519c0.054,-0.119 0.12,-0.266 0.203,-0.445c0.267,-0.57 0.77,-1.772 1.465,-3.435l0.572,-1.377c0.445,-1.071 0.829,-1.998 0.931,-2.259c0.343,-0.863 0.521,-1.038 0.659,-1.134c0.223,-0.141 0.481,-0.141 0.566,-0.141c0.13,0 0.195,-0.044 0.195,-0.134c0,-0.135 -0.194,-0.135 -0.258,-0.135" style="fill:#d9dcec;fill-rule:nonzero;"/><path d="M26.549,7.81c-0.108,0 -0.136,0.102 -0.158,0.225c-0.084,0.494 -0.227,0.724 -0.525,0.851c-0.312,0.131 -0.845,0.131 -1.163,0.131c-1.225,0 -1.347,-0.17 -1.381,-0.965c-0.009,-0.184 -0.006,-0.979 -0.003,-1.56c0.002,-0.229 0.003,-0.425 0.003,-0.543l0,-1.083c0,-0.032 0.013,-0.038 0.038,-0.038c0.206,0 1.422,0.024 1.756,0.062c0.441,0.045 0.55,0.225 0.598,0.397c0.048,0.153 0.048,0.269 0.048,0.392c0,0.098 0.051,0.159 0.135,0.159c0.134,0 0.134,-0.177 0.134,-0.283c0,-0.08 0.023,-0.531 0.048,-0.784c0.023,-0.251 0.056,-0.426 0.077,-0.541c0.014,-0.073 0.022,-0.12 0.022,-0.152c0,-0.132 -0.077,-0.147 -0.109,-0.147c-0.067,0 -0.118,0.06 -0.203,0.156l-0.018,0.02c-0.1,0.111 -0.274,0.135 -0.547,0.157c-0.267,0.023 -1.674,0.024 -1.954,0.024c-0.012,0 -0.016,-0.002 -0.016,-0.002c-0.002,-0.001 -0.009,-0.011 -0.009,-0.072l0,-3.399c0,-0.075 0.019,-0.075 0.019,-0.075c0.153,0 1.483,0.012 1.689,0.036c0.646,0.072 0.757,0.213 0.835,0.389c0.055,0.133 0.07,0.331 0.07,0.425c0,0.173 0.08,0.208 0.145,0.208c0.066,0 0.111,-0.058 0.135,-0.175c0.016,-0.098 0.032,-0.354 0.045,-0.562c0.007,-0.113 0.012,-0.21 0.018,-0.254c0.02,-0.201 0.051,-0.332 0.071,-0.427c0.016,-0.067 0.026,-0.116 0.026,-0.156c0,-0.139 -0.061,-0.159 -0.098,-0.159c-0.045,0 -0.083,0.019 -0.118,0.036c-0.022,0.012 -0.042,0.022 -0.065,0.026c-0.101,0.027 -0.305,0.049 -0.52,0.061c-0.279,0.012 -2.715,0.012 -2.815,0.012l-0.505,-0.025c-0.272,-0.013 -0.6,-0.013 -0.889,-0.013c-0.073,0 -0.245,0 -0.245,0.148c0,0.07 0.061,0.122 0.147,0.122c0.111,0 0.315,0.012 0.407,0.035c0.393,0.084 0.469,0.27 0.492,0.658c0.025,0.393 0.025,0.739 0.025,2.658l0,2.166c0,1.203 0,2.153 -0.061,2.667c-0.054,0.389 -0.119,0.596 -0.32,0.636c-0.136,0.031 -0.27,0.048 -0.359,0.048c-0.108,0 -0.147,0.066 -0.147,0.123c0,0.146 0.172,0.146 0.245,0.146c0.087,0 0.194,-0.006 0.311,-0.012c0.134,-0.006 0.273,-0.013 0.407,-0.013c0.238,-0.012 0.435,-0.012 0.489,-0.012c0.174,0 0.451,0.01 0.96,0.037l0.263,0.007c0.445,0.013 1.052,0.031 1.818,0.031c0.486,0 0.616,0 0.713,-0.359c0.059,-0.254 0.162,-1.094 0.162,-1.204c0,-0.094 0,-0.234 -0.123,-0.234" style="fill:#d9dcec;fill-rule:nonzero;"/><path d="M56.067,19.645c0.041,-0.003 0.076,-0.01 0.108,-0.023c0.032,-0.012 0.057,-0.031 0.076,-0.059c0.019,-0.027 0.029,-0.064 0.029,-0.111c0,-0.041 -0.007,-0.074 -0.022,-0.099c-0.014,-0.024 -0.035,-0.043 -0.061,-0.058c-0.025,-0.015 -0.054,-0.027 -0.085,-0.031c-0.032,-0.004 -0.065,-0.008 -0.1,-0.008l-0.256,0l0,0.393l0.186,0c0.042,0 0.083,-0.002 0.125,-0.004M55.618,20.27l0,-1.132l0.433,0c0.13,0 0.222,0.027 0.282,0.081c0.058,0.052 0.087,0.13 0.087,0.233c0,0.048 -0.007,0.092 -0.022,0.129c-0.014,0.036 -0.036,0.067 -0.061,0.093c-0.028,0.025 -0.058,0.045 -0.092,0.061c-0.033,0.014 -0.07,0.025 -0.109,0.032l0.337,0.503l-0.164,0l-0.318,-0.503l-0.235,0l0,0.503l-0.138,0ZM55.642,18.93c-0.102,0.044 -0.189,0.103 -0.262,0.179c-0.073,0.076 -0.132,0.165 -0.173,0.266c-0.04,0.101 -0.061,0.212 -0.061,0.328c0,0.119 0.021,0.228 0.061,0.33c0.041,0.102 0.1,0.191 0.173,0.267c0.073,0.075 0.16,0.135 0.262,0.178c0.101,0.044 0.21,0.066 0.332,0.066c0.116,0 0.226,-0.022 0.327,-0.066c0.1,-0.043 0.188,-0.103 0.261,-0.178c0.074,-0.076 0.133,-0.165 0.175,-0.267c0.041,-0.102 0.063,-0.211 0.063,-0.33c0,-0.116 -0.022,-0.227 -0.063,-0.328c-0.042,-0.101 -0.101,-0.19 -0.175,-0.266c-0.073,-0.076 -0.161,-0.135 -0.261,-0.179c-0.101,-0.044 -0.211,-0.066 -0.327,-0.066c-0.122,0 -0.231,0.022 -0.332,0.066M56.359,18.799c0.12,0.051 0.223,0.12 0.312,0.21c0.086,0.087 0.156,0.192 0.206,0.31c0.05,0.12 0.074,0.247 0.074,0.384c0,0.14 -0.024,0.268 -0.074,0.387c-0.05,0.118 -0.12,0.222 -0.206,0.309c-0.089,0.088 -0.192,0.157 -0.312,0.206c-0.12,0.05 -0.248,0.075 -0.385,0.075c-0.141,0 -0.269,-0.025 -0.389,-0.075c-0.118,-0.049 -0.221,-0.118 -0.31,-0.206c-0.088,-0.087 -0.157,-0.191 -0.206,-0.309c-0.05,-0.119 -0.076,-0.247 -0.076,-0.387c0,-0.137 0.026,-0.264 0.076,-0.384c0.049,-0.118 0.118,-0.223 0.206,-0.31c0.089,-0.09 0.192,-0.159 0.31,-0.21c0.12,-0.049 0.248,-0.075 0.389,-0.075c0.137,0 0.265,0.026 0.385,0.075" style="fill:#5f6eb3;fill-rule:nonzero;"/><path d="M10.914,14.664c-0.244,-0.051 -0.758,-0.152 -1.01,-0.167c-0.365,-0.023 -0.629,-0.037 -0.79,-0.037c-0.837,0 -1.611,0.175 -2.173,0.395c-0.563,0.217 -0.911,0.493 -0.902,0.636c0.002,0.041 0.024,0.063 0.073,0.065c0.346,0.004 0.968,-0.427 1.988,-0.427c0.369,0 0.817,0.093 1.368,0.261l3.975,1.192c1.318,0.389 2.451,0.592 3.399,0.592c0.93,0 1.714,-0.257 2.255,-0.718c0.448,-0.37 0.727,-0.584 0.72,-0.741c-0.002,-0.096 -0.062,-0.154 -0.194,-0.158c-0.053,-0.006 -0.257,0.172 -0.567,0.35c-0.315,0.179 -0.756,0.357 -1.339,0.357c-0.759,0 -2.017,-0.355 -3.842,-0.837c-0.004,-0.001 -2.719,-0.713 -2.961,-0.763" style="fill:#6fb1c9;fill-rule:nonzero;"/><path d="M16.387,19.923c0.112,0.303 0,0.474 -0.114,0.512c-0.077,0.02 -0.133,0.057 -0.133,0.132c0,0.113 0.208,0.113 0.568,0.133c1.306,0.038 2.688,0.038 2.973,0.038c0.209,0 0.378,-0.038 0.378,-0.152c0,-0.094 -0.074,-0.114 -0.188,-0.114c-0.19,0 -0.475,-0.017 -0.758,-0.113c-0.398,-0.113 -0.947,-0.416 -1.629,-2.102l-4.412,-11.419c-0.227,-0.588 -0.303,-0.683 -0.417,-0.683c-0.114,0 -0.19,0.114 -0.416,0.74l-4.299,11.759c-0.341,0.947 -0.72,1.667 -1.591,1.781c-0.152,0.02 -0.418,0.037 -0.549,0.037c-0.095,0 -0.171,0.038 -0.171,0.114c0,0.114 0.114,0.152 0.359,0.152c0.892,0 1.933,-0.058 2.14,-0.058c0.208,0 1.023,0.058 1.478,0.058c0.171,0 0.285,-0.038 0.285,-0.152c0,-0.076 -0.057,-0.114 -0.19,-0.114l-0.19,0c-0.321,0 -0.719,-0.17 -0.719,-0.549c0,-0.341 0.095,-0.795 0.265,-1.269l3.144,-9.43c0.094,-0.284 0.188,-0.284 0.285,0l3.901,10.699Z" style="fill:#5f6eb3;fill-rule:nonzero;"/><path d="M15.29,17.026c0.563,0.098 1.082,0.148 1.553,0.148c0.93,0 1.713,-0.257 2.255,-0.718c0.448,-0.371 0.727,-0.584 0.719,-0.741c-0.001,-0.096 -0.061,-0.154 -0.194,-0.158c-0.052,-0.007 -0.257,0.172 -0.566,0.35c-0.315,0.178 -0.756,0.357 -1.34,0.357c-0.622,0 -1.576,-0.238 -2.903,-0.589l0.476,1.351Z" style="fill:#6fb1c9;fill-rule:nonzero;"/><path d="M27.773,11.909c0,-3.482 -2.42,-5.148 -4.81,-5.148c-1.991,0 -4.166,1.439 -4.166,4.777c0,3.426 2.315,5.462 4.968,5.462c1.216,0 4.008,-0.874 4.008,-5.091M25.692,17.271c-0.609,0.216 -1.622,0.47 -2.427,0.47c-4.452,0 -6.107,-3.339 -6.107,-5.93c0,-2.347 1.702,-5.741 6.153,-5.741c3.632,0 6.152,2.231 6.152,5.454c0,2.533 -1.618,4.451 -2.574,5.055l2.964,1.458c3.205,1.555 5.73,1.855 6.763,1.855c0.79,0 1.406,-0.397 2.48,-0.941c0.084,-0.043 0.168,-0.073 0.227,-0.073c0.076,0 0.138,0.058 0.138,0.131c0,0.086 -0.076,0.129 -0.183,0.173c-0.912,0.416 -2.285,1.585 -4.456,1.326c-1.874,-0.221 -4.31,-0.63 -6.815,-2.025l-2.315,-1.212Z" style="fill:#5f6eb3;fill-rule:nonzero;"/><path d="M42.452,6.285c-0.073,-0.033 -0.15,-0.039 -0.247,-0.039c-0.51,0 -1.309,0.049 -1.415,0.049c-0.091,0 -1.023,-0.049 -1.781,-0.049c-0.099,0 -0.177,0.006 -0.25,0.039c-0.075,0.03 -0.132,0.122 -0.126,0.202c0.005,0.158 0.151,0.207 0.242,0.207c0.143,0 0.432,0.019 0.544,0.049c0.52,0.125 0.591,0.294 0.642,0.858c0.032,0.531 0.032,2.202 0.032,4.822l0,2.099c0.002,1.722 -0.204,3.124 -0.948,4.047c-0.581,0.694 -1.565,1.17 -2.556,1.169c-0.948,-0.002 -1.659,-0.144 -2.466,-0.895c-0.698,-0.668 -1.223,-1.665 -1.225,-4.07l0,-2.35c0,-2.62 0,-4.317 0.032,-4.849c0.046,-0.586 0.139,-0.789 0.532,-0.856c0.204,-0.034 0.296,-0.05 0.404,-0.05c0.09,0 0.238,-0.052 0.241,-0.209c0.006,-0.079 -0.05,-0.172 -0.126,-0.201c-0.073,-0.034 -0.152,-0.039 -0.249,-0.04l0.004,0l-0.013,-0.001c-0.512,0 -1.514,0.051 -1.657,0.051c-0.143,0 -1.173,-0.051 -1.932,-0.051c-0.099,0.001 -0.178,0.007 -0.25,0.039c-0.075,0.031 -0.134,0.123 -0.128,0.203c0.004,0.158 0.15,0.209 0.242,0.209c0.143,-0.001 0.432,0.018 0.545,0.047c0.522,0.128 0.594,0.295 0.642,0.858c0.035,0.533 0.035,2.23 0.035,4.85l0,2.45c-0.002,2.171 0.501,3.376 1.197,4.183c1.659,1.658 3.698,1.542 3.698,1.542c0.454,0 0.76,-0.03 0.904,-0.046c0.852,-0.095 1.828,-0.395 2.768,-1.23c1.387,-1.236 1.581,-3.283 1.582,-5.103l0,-1.796c0,-2.62 0,-4.291 0.034,-4.822c0.045,-0.586 0.134,-0.774 0.534,-0.856c0.198,-0.051 0.281,-0.049 0.4,-0.051c0.09,0 0.238,-0.051 0.242,-0.207c0.006,-0.081 -0.051,-0.172 -0.127,-0.202M32.417,19.056c-0.038,-0.038 -0.067,-0.066 -0.101,-0.1c0.059,0.059 0.101,0.1 0.101,0.1" style="fill:#5f6eb3;fill-rule:nonzero;"/><path d="M48.45,14.496c0.093,0 0.093,-0.056 0.074,-0.132l-1.801,-5.106c-0.094,-0.284 -0.189,-0.284 -0.284,0l-1.668,5.106c-0.04,0.095 0,0.132 0.057,0.132l3.622,0ZM46.477,6.932c0.227,-0.624 0.303,-0.738 0.417,-0.738c0.114,0 0.19,0.095 0.418,0.681c0.283,0.718 3.262,8.53 4.419,11.403c0.683,1.685 1.233,1.987 1.63,2.1c0.285,0.094 0.569,0.114 0.759,0.114c0.114,0 0.19,0.019 0.19,0.113c0,0.114 -0.171,0.152 -0.38,0.152c-0.284,0 -1.669,0 -2.977,-0.038c-0.36,-0.019 -0.569,-0.019 -0.569,-0.133c0,-0.075 0.057,-0.114 0.133,-0.132c0.113,-0.038 0.227,-0.208 0.113,-0.51l-1.764,-4.653c-0.038,-0.075 -0.076,-0.114 -0.171,-0.114l-4.078,0c-0.094,0 -0.151,0.057 -0.189,0.152l-1.139,3.346c-0.169,0.473 -0.264,0.927 -0.264,1.269c0,0.378 0.399,0.548 0.72,0.548l0.191,0c0.133,0 0.188,0.038 0.188,0.113c0,0.114 -0.112,0.152 -0.283,0.152c-0.457,0 -1.271,-0.057 -1.48,-0.057c-0.209,0 -1.252,0.057 -2.144,0.057c-0.245,0 -0.359,-0.038 -0.359,-0.152c0,-0.075 0.076,-0.113 0.171,-0.113c0.131,0 0.397,-0.02 0.55,-0.038c0.871,-0.113 1.251,-0.832 1.592,-1.779l4.306,-11.743Z" style="fill:#5f6eb3;fill-rule:nonzero;"/><path d="M25.595,22.606l0.273,0l0,1.039l1.036,0l0,-1.039l0.273,0l0,2.514l-0.273,0l0,-1.176l-1.036,0l0,1.176l-0.273,0l0,-2.514Z" style="fill:#6fb1c9;fill-rule:nonzero;"/><path d="M29.25,24.568c0.106,-0.215 0.161,-0.463 0.161,-0.741c0,-0.296 -0.062,-0.533 -0.186,-0.714c-0.124,-0.18 -0.292,-0.27 -0.506,-0.27c-0.209,0 -0.377,0.09 -0.508,0.268c-0.132,0.178 -0.197,0.441 -0.197,0.789c0,0.278 0.055,0.513 0.168,0.703c0.114,0.191 0.296,0.287 0.547,0.287c0.239,0 0.413,-0.107 0.521,-0.322M29.488,22.967c0.131,0.222 0.198,0.506 0.198,0.854c0,0.375 -0.075,0.686 -0.227,0.935c-0.178,0.291 -0.434,0.437 -0.764,0.437c-0.309,0 -0.551,-0.127 -0.728,-0.383c-0.158,-0.246 -0.236,-0.557 -0.236,-0.933c0,-0.34 0.067,-0.631 0.202,-0.872c0.173,-0.311 0.43,-0.466 0.768,-0.466c0.353,0 0.616,0.143 0.787,0.428" style="fill:#6fb1c9;fill-rule:nonzero;"/><path d="M31.637,22.606l0,0.301l-0.679,0l0,2.213l-0.273,0l0,-2.213l-0.677,0l0,-0.301l1.629,0Z" style="fill:#6fb1c9;fill-rule:nonzero;"/><path d="M32.139,22.606l1.464,0l0,0.306l-1.2,0l0,0.766l1.109,0l0,0.291l-1.109,0l0,0.85l1.215,0l0,0.301l-1.479,0l0,-2.514Z" style="fill:#6fb1c9;fill-rule:nonzero;"/><path d="M34.218,22.606l0.271,0l0,2.213l1.006,0l0,0.301l-1.277,0l0,-2.514Z" style="fill:#6fb1c9;fill-rule:nonzero;"/><path d="M36.106,24.309c0.006,0.143 0.032,0.258 0.077,0.346c0.088,0.166 0.241,0.249 0.462,0.249c0.097,0 0.186,-0.018 0.268,-0.054c0.156,-0.071 0.235,-0.197 0.235,-0.379c0,-0.136 -0.033,-0.234 -0.101,-0.292c-0.067,-0.057 -0.172,-0.105 -0.313,-0.147l-0.265,-0.076c-0.172,-0.051 -0.294,-0.105 -0.366,-0.165c-0.124,-0.105 -0.185,-0.263 -0.185,-0.472c0,-0.224 0.061,-0.41 0.182,-0.554c0.121,-0.145 0.294,-0.218 0.517,-0.218c0.204,0 0.378,0.065 0.522,0.191c0.143,0.128 0.215,0.33 0.215,0.609l-0.254,0c-0.015,-0.135 -0.042,-0.237 -0.085,-0.309c-0.08,-0.13 -0.214,-0.196 -0.405,-0.196c-0.155,0 -0.266,0.042 -0.333,0.126c-0.067,0.084 -0.101,0.183 -0.101,0.293c0,0.124 0.039,0.214 0.12,0.27c0.051,0.037 0.169,0.083 0.353,0.137l0.273,0.081c0.131,0.038 0.233,0.091 0.305,0.158c0.122,0.117 0.185,0.287 0.185,0.511c0,0.278 -0.079,0.476 -0.236,0.596c-0.159,0.12 -0.342,0.179 -0.55,0.179c-0.244,0 -0.434,-0.08 -0.573,-0.24c-0.137,-0.158 -0.205,-0.373 -0.202,-0.644l0.255,0Z" style="fill:#6fb1c9;fill-rule:nonzero;"/><path d="M40.27,24.771c-0.159,-0.164 -0.422,-0.473 -0.493,-0.566c-0.072,-0.091 -0.247,-0.328 -0.294,-0.41c-0.093,0.082 -0.188,0.237 -0.188,0.499c0,0.412 0.239,0.675 0.525,0.675c0.211,0 0.392,-0.132 0.45,-0.198M39.412,23.67c-0.115,-0.184 -0.137,-0.32 -0.14,-0.467c-0.003,-0.26 0.189,-0.605 0.667,-0.605c0.134,0 0.257,0.033 0.331,0.069c0.047,0.02 0.047,0.046 0.047,0.085c0,0.109 -0.022,0.372 -0.031,0.422c-0.006,0.049 -0.016,0.055 -0.032,0.055c-0.018,0 -0.02,-0.013 -0.02,-0.062c0,-0.085 -0.019,-0.19 -0.079,-0.277c-0.056,-0.078 -0.151,-0.147 -0.304,-0.147c-0.115,0 -0.293,0.095 -0.293,0.375c0,0.309 0.235,0.571 0.454,0.864c0.093,0.129 0.43,0.493 0.483,0.55c0.054,-0.093 0.131,-0.306 0.131,-0.508c0,-0.048 -0.012,-0.11 -0.052,-0.15c-0.035,-0.04 -0.094,-0.049 -0.135,-0.049c-0.016,0 -0.032,-0.007 -0.032,-0.027c0,-0.026 0.022,-0.033 0.044,-0.033c0.066,0 0.175,0.004 0.328,0.023c0.053,0.007 0.094,0.026 0.094,0.066c0,0.254 -0.113,0.559 -0.269,0.779c0.184,0.181 0.307,0.27 0.381,0.323c0.088,0.062 0.238,0.115 0.293,0.115c0.024,0 0.038,0.003 0.038,0.029c0,0.02 -0.021,0.031 -0.083,0.031l-0.21,0c-0.312,0 -0.41,-0.037 -0.646,-0.254c-0.091,0.098 -0.275,0.299 -0.65,0.299c-0.587,0 -0.762,-0.441 -0.762,-0.727c0,-0.385 0.283,-0.684 0.447,-0.779" style="fill:#6fb1c9;fill-rule:nonzero;"/><path d="M43.43,23.757c0.124,0 0.222,-0.032 0.293,-0.096c0.073,-0.064 0.108,-0.179 0.108,-0.345c0,-0.18 -0.049,-0.302 -0.15,-0.367c-0.054,-0.035 -0.125,-0.051 -0.216,-0.051l-0.644,0l0,0.859l0.609,0ZM42.547,22.606l0.912,0c0.151,0 0.275,0.028 0.371,0.083c0.185,0.108 0.279,0.305 0.279,0.594c0,0.151 -0.027,0.273 -0.075,0.369c-0.051,0.096 -0.119,0.173 -0.208,0.231c0.078,0.04 0.137,0.092 0.176,0.156c0.04,0.065 0.061,0.171 0.067,0.319l0.009,0.337c0.003,0.096 0.009,0.168 0.019,0.214c0.016,0.079 0.045,0.13 0.088,0.154l0,0.057l-0.335,0c-0.007,-0.021 -0.016,-0.049 -0.02,-0.084c-0.006,-0.034 -0.01,-0.1 -0.013,-0.198l-0.021,-0.421c-0.007,-0.164 -0.054,-0.275 -0.141,-0.331c-0.051,-0.031 -0.13,-0.047 -0.237,-0.047l-0.597,0l0,1.081l-0.274,0l0,-2.514Z" style="fill:#6fb1c9;fill-rule:nonzero;"/><path d="M44.786,22.606l1.464,0l0,0.306l-1.2,0l0,0.766l1.109,0l0,0.291l-1.109,0l0,0.85l1.216,0l0,0.301l-1.48,0l0,-2.514Z" style="fill:#6fb1c9;fill-rule:nonzero;"/><path d="M47.029,24.309c0.006,0.143 0.032,0.258 0.077,0.346c0.088,0.166 0.241,0.25 0.46,0.25c0.099,0 0.188,-0.019 0.27,-0.055c0.156,-0.071 0.235,-0.197 0.235,-0.379c0,-0.136 -0.034,-0.233 -0.101,-0.292c-0.067,-0.057 -0.172,-0.105 -0.315,-0.147l-0.263,-0.076c-0.172,-0.051 -0.294,-0.105 -0.366,-0.165c-0.124,-0.105 -0.185,-0.263 -0.185,-0.472c0,-0.224 0.06,-0.41 0.182,-0.554c0.121,-0.145 0.294,-0.218 0.515,-0.218c0.206,0 0.381,0.065 0.523,0.191c0.144,0.128 0.216,0.33 0.216,0.609l-0.256,0c-0.013,-0.135 -0.04,-0.237 -0.083,-0.309c-0.08,-0.13 -0.216,-0.196 -0.405,-0.196c-0.155,0 -0.266,0.043 -0.333,0.126c-0.067,0.084 -0.101,0.183 -0.101,0.293c0,0.124 0.039,0.214 0.118,0.27c0.053,0.037 0.171,0.083 0.355,0.137l0.273,0.081c0.131,0.038 0.232,0.091 0.303,0.158c0.124,0.117 0.187,0.287 0.187,0.511c0,0.278 -0.08,0.476 -0.238,0.596c-0.157,0.12 -0.34,0.179 -0.548,0.179c-0.246,0 -0.435,-0.08 -0.573,-0.24c-0.138,-0.158 -0.205,-0.372 -0.202,-0.644l0.255,0Z" style="fill:#6fb1c9;fill-rule:nonzero;"/><path d="M50.355,24.568c0.108,-0.215 0.16,-0.463 0.16,-0.741c0,-0.296 -0.061,-0.533 -0.185,-0.714c-0.122,-0.18 -0.292,-0.27 -0.506,-0.27c-0.208,0 -0.377,0.09 -0.508,0.268c-0.132,0.178 -0.197,0.441 -0.197,0.789c0,0.278 0.057,0.513 0.169,0.703c0.113,0.191 0.295,0.288 0.547,0.288c0.24,0 0.413,-0.108 0.52,-0.323M50.593,22.967c0.133,0.222 0.198,0.506 0.198,0.854c0,0.375 -0.075,0.686 -0.227,0.935c-0.178,0.291 -0.432,0.437 -0.764,0.437c-0.308,0 -0.551,-0.127 -0.728,-0.383c-0.157,-0.246 -0.235,-0.557 -0.235,-0.933c0,-0.34 0.067,-0.631 0.202,-0.872c0.173,-0.311 0.429,-0.466 0.767,-0.466c0.355,0 0.616,0.143 0.787,0.428" style="fill:#6fb1c9;fill-rule:nonzero;"/><path d="M52.201,23.757c0.123,0 0.222,-0.032 0.293,-0.096c0.072,-0.064 0.108,-0.179 0.108,-0.345c0,-0.18 -0.051,-0.302 -0.151,-0.367c-0.054,-0.035 -0.126,-0.051 -0.216,-0.051l-0.644,0l0,0.859l0.61,0ZM51.318,22.606l0.912,0c0.15,0 0.273,0.028 0.371,0.083c0.185,0.108 0.277,0.305 0.277,0.594c0,0.151 -0.025,0.273 -0.074,0.369c-0.05,0.096 -0.119,0.173 -0.207,0.231c0.077,0.04 0.137,0.092 0.176,0.156c0.04,0.065 0.061,0.171 0.066,0.319l0.01,0.337c0.001,0.096 0.009,0.168 0.017,0.214c0.018,0.079 0.047,0.13 0.088,0.154l0,0.057l-0.333,0c-0.008,-0.021 -0.016,-0.049 -0.022,-0.084c-0.004,-0.034 -0.008,-0.1 -0.011,-0.198l-0.022,-0.421c-0.006,-0.164 -0.054,-0.275 -0.142,-0.331c-0.049,-0.031 -0.128,-0.047 -0.236,-0.047l-0.597,0l0,1.081l-0.273,0l0,-2.514Z" style="fill:#6fb1c9;fill-rule:nonzero;"/><path d="M54.973,22.606l0,0.301l-0.677,0l0,2.213l-0.273,0l0,-2.213l-0.677,0l0,-0.301l1.627,0Z" style="fill:#6fb1c9;fill-rule:nonzero;"/><path d="M55.571,24.309c0.007,0.143 0.032,0.258 0.079,0.346c0.087,0.166 0.239,0.25 0.46,0.25c0.097,0 0.188,-0.019 0.27,-0.055c0.156,-0.071 0.233,-0.197 0.233,-0.379c0,-0.136 -0.032,-0.233 -0.099,-0.292c-0.067,-0.057 -0.172,-0.105 -0.315,-0.147l-0.265,-0.076c-0.172,-0.051 -0.293,-0.105 -0.364,-0.165c-0.125,-0.105 -0.186,-0.263 -0.186,-0.472c0,-0.224 0.06,-0.41 0.183,-0.554c0.121,-0.145 0.293,-0.218 0.515,-0.218c0.206,0 0.379,0.065 0.522,0.191c0.145,0.128 0.216,0.33 0.216,0.609l-0.255,0c-0.013,-0.135 -0.041,-0.237 -0.085,-0.309c-0.079,-0.13 -0.214,-0.196 -0.405,-0.196c-0.154,0 -0.265,0.043 -0.332,0.126c-0.067,0.084 -0.102,0.183 -0.102,0.293c0,0.124 0.039,0.214 0.12,0.27c0.052,0.037 0.17,0.083 0.353,0.137l0.274,0.081c0.132,0.038 0.232,0.091 0.304,0.158c0.124,0.117 0.185,0.287 0.185,0.511c0,0.278 -0.079,0.476 -0.236,0.596c-0.158,0.12 -0.34,0.179 -0.55,0.179c-0.243,0 -0.434,-0.08 -0.571,-0.24c-0.139,-0.158 -0.206,-0.373 -0.203,-0.644l0.254,0Z" style="fill:#6fb1c9;fill-rule:nonzero;"/></g></svg>