<?xml version="1.0" standalone="no"?><!DOCTYPE svg PUBLIC "-//W3C//DTD SVG 1.1//EN" "http://www.w3.org/Graphics/SVG/1.1/DTD/svg11.dtd"><svg width="100%" height="100%" viewBox="0 0 91 15" version="1.1" xmlns="http://www.w3.org/2000/svg" xmlns:xlink="http://www.w3.org/1999/xlink" xml:space="preserve" style="fill-rule:evenodd;clip-rule:evenodd;stroke-linejoin:round;stroke-miterlimit:1.41421;"><g><path d="M20.663,1.3c0.503,0.419 0.956,0.916 1.338,1.489c2.125,3.185 1.286,7.476 -1.875,9.587c-3.161,2.109 -7.446,1.238 -9.571,-1.948c-0.289,-0.43 -0.52,-0.882 -0.701,-1.346c0.885,2.868 3.556,4.951 6.715,4.951c3.879,0 7.025,-3.145 7.025,-7.025c0,-2.352 -1.157,-4.433 -2.931,-5.708" style="fill:#8c7836;fill-rule:nonzero;"/><path d="M16.463,1.386c-3.138,0 -5.69,2.553 -5.69,5.69c0,3.138 2.552,5.691 5.69,5.691c3.138,0 5.69,-2.553 5.69,-5.691c0,-3.137 -2.552,-5.69 -5.69,-5.69M16.463,13.035c-3.285,0 -5.959,-2.673 -5.959,-5.959c0,-3.285 2.674,-5.958 5.959,-5.958c3.286,0 5.959,2.673 5.959,5.958c0,3.286 -2.673,5.959 -5.959,5.959" style="fill:#baa666;fill-rule:nonzero;"/><path d="M10.11,7.223c0,-3.643 2.911,-6.595 6.501,-6.595c2.359,0 4.425,1.275 5.564,3.184c-1.104,-2.114 -3.316,-3.558 -5.866,-3.558c-3.655,0 -6.617,2.962 -6.617,6.616c0,2.07 0.952,3.919 2.441,5.132c-1.245,-1.202 -2.023,-2.898 -2.023,-4.779" style="fill:#8c7836;fill-rule:nonzero;"/><path d="M20.887,5.004c-1.164,-2.026 -3.66,-2.777 -5.574,-1.677c-1.512,0.869 -2.191,2.632 -1.842,4.334c-0.186,-1.403 0.434,-2.818 1.69,-3.54c1.683,-0.967 3.867,-0.325 4.879,1.435c1.011,1.76 0.467,3.97 -1.216,4.938c-1.144,0.657 -2.511,0.557 -3.593,-0.118c1.265,0.901 2.928,1.076 4.3,0.288c1.913,-1.1 2.521,-3.634 1.356,-5.66" style="fill:#cdcaad;fill-rule:nonzero;"/><path d="M17.697,11.467c-2.559,0 -4.633,-2.066 -4.633,-4.614c0,-0.894 0.26,-1.727 0.703,-2.434c-0.631,0.767 -1.014,1.758 -1.014,2.844c0,2.428 1.906,4.396 4.257,4.396c0.498,0 0.974,-0.093 1.418,-0.255c-0.239,0.038 -0.482,0.063 -0.731,0.063" style="fill:#cdcaad;fill-rule:nonzero;"/><path d="M16.845,2.378c-2.952,0 -5.353,2.401 -5.353,5.353c0,2.952 2.401,5.353 5.353,5.353c2.952,0 5.353,-2.401 5.353,-5.353c0,-2.952 -2.401,-5.353 -5.353,-5.353M16.845,13.346c-3.096,0 -5.615,-2.519 -5.615,-5.615c0,-3.096 2.519,-5.615 5.615,-5.615c3.096,0 5.615,2.519 5.615,5.615c0,3.096 -2.519,5.615 -5.615,5.615" style="fill:#a49162;fill-rule:nonzero;"/><path d="M16.329,2.362c-2.661,0.071 -4.77,2.229 -4.701,4.81c0.069,2.581 2.291,4.623 4.951,4.552c0.479,-0.013 0.939,-0.096 1.372,-0.234c-0.269,-0.011 -0.579,-0.035 -0.867,-0.082c-0.168,0.023 -0.338,0.039 -0.512,0.044c-2.511,0.067 -4.606,-1.856 -4.671,-4.287c-0.066,-2.431 1.924,-4.464 4.435,-4.531c2.511,-0.067 4.607,1.856 4.672,4.287c0.051,1.902 -1.158,3.556 -2.889,4.219c0.218,-0.017 0.611,-0.078 1.102,-0.274c1.279,-0.874 2.103,-2.327 2.059,-3.952c-0.069,-2.581 -2.29,-4.623 -4.951,-4.552" style="fill:#b9a869;fill-rule:nonzero;"/><path d="M4.957,4.004c0,-0.629 -0.187,-1.073 -0.55,-1.333c-0.366,-0.257 -1.042,-0.385 -2.027,-0.385l-0.486,0l0,3.422l0.812,0c0.905,0 1.541,-0.192 1.907,-0.57c0.231,-0.238 0.344,-0.544 0.344,-0.912l0,-0.222ZM6.745,3.868c0,1.061 -0.218,1.853 -0.652,2.378c-0.613,0.73 -1.714,1.094 -3.299,1.094l-0.994,0l0,5.518l-1.697,0l0,-12.292l2.957,0c1.191,0 2.084,0.233 2.675,0.7c0.673,0.538 1.01,1.403 1.01,2.602" style="fill:#636466;fill-rule:nonzero;"/><path d="M33.99,9.484c0,0.941 -0.254,1.743 -0.761,2.409c-0.655,0.86 -1.628,1.292 -2.924,1.292c-0.862,0 -1.578,-0.196 -2.148,-0.587c-0.664,-0.46 -1.124,-1.193 -1.384,-2.195l1.463,-0.742c0.136,0.533 0.38,0.95 0.739,1.252c0.357,0.299 0.803,0.45 1.343,0.45c0.551,0 0.991,-0.174 1.322,-0.517c0.334,-0.343 0.497,-0.771 0.497,-1.291c0,-0.332 -0.063,-0.619 -0.201,-0.861c-0.197,-0.347 -0.549,-0.648 -1.056,-0.912c-0.175,-0.103 -0.546,-0.314 -1.102,-0.62c-0.107,-0.047 -0.206,-0.092 -0.299,-0.14c-1.595,-0.836 -2.395,-1.947 -2.395,-3.337c0,-0.91 0.26,-1.671 0.778,-2.292c0.622,-0.745 1.495,-1.12 2.628,-1.12c0.674,0 1.294,0.161 1.852,0.481c0.628,0.367 1.063,0.89 1.291,1.565l-1.416,0.81c-0.217,-0.323 -0.414,-0.557 -0.592,-0.705c-0.331,-0.277 -0.713,-0.415 -1.147,-0.415c-0.377,0 -0.693,0.1 -0.953,0.293c-0.363,0.276 -0.543,0.697 -0.543,1.256c0,0.347 0.115,0.679 0.343,1c0.196,0.277 0.411,0.47 0.638,0.583l1.834,0.95c0.613,0.346 1.051,0.665 1.322,0.965c0.582,0.63 0.871,1.439 0.871,2.428" style="fill:#636466;fill-rule:nonzero;"/><path d="M44.181,8.033l-1.131,-2.789c-0.141,-0.415 -0.281,-0.886 -0.414,-1.411l-0.389,1.409l-1.167,2.785l3.101,0.006ZM48.015,12.858l-1.905,-0.003l-1.273,-3.159l-4.422,0l-1.277,3.163l-1.883,-0.001l5.349,-12.759l5.411,12.759Z" style="fill:#636466;fill-rule:nonzero;"/><path d="M53.63,2.319l0,8.769l1.618,0c1.399,0 2.44,-0.347 3.12,-1.039c0.678,-0.695 1.016,-1.822 1.016,-3.383c0,-1.235 -0.206,-2.18 -0.621,-2.834c-0.647,-1.007 -1.788,-1.513 -3.435,-1.513l-1.698,0ZM61.281,6.721c0,2.131 -0.517,3.688 -1.547,4.668c-1.034,0.979 -2.643,1.468 -4.829,1.468l-3.063,0l0,-12.291l2.924,0c2.25,0 3.898,0.498 4.947,1.496c1.045,0.998 1.568,2.547 1.568,4.659" style="fill:#636466;fill-rule:nonzero;"/><path d="M71.584,8.033l-1.131,-2.789c-0.144,-0.415 -0.284,-0.886 -0.417,-1.411l-0.389,1.409l-1.167,2.785l3.104,0.006ZM75.418,12.858l-1.91,-0.003l-1.27,-3.159l-4.421,0l-1.277,3.163l-1.885,-0.001l5.349,-12.759l5.414,12.759Z" style="fill:#636466;fill-rule:nonzero;"/><path d="M85.822,9.484c0,0.941 -0.254,1.743 -0.762,2.409c-0.656,0.86 -1.629,1.292 -2.924,1.292c-0.861,0 -1.577,-0.196 -2.147,-0.587c-0.662,-0.46 -1.125,-1.193 -1.385,-2.195l1.462,-0.742c0.137,0.533 0.382,0.95 0.738,1.252c0.359,0.299 0.809,0.45 1.345,0.45c0.55,0 0.992,-0.174 1.325,-0.517c0.328,-0.343 0.498,-0.771 0.498,-1.291c0,-0.332 -0.069,-0.619 -0.204,-0.861c-0.196,-0.347 -0.55,-0.648 -1.06,-0.912c-0.171,-0.103 -0.542,-0.314 -1.102,-0.62c-0.105,-0.047 -0.201,-0.092 -0.297,-0.14c-1.596,-0.836 -2.393,-1.947 -2.393,-3.337c0,-0.91 0.26,-1.671 0.774,-2.292c0.628,-0.745 1.502,-1.12 2.632,-1.12c0.675,0 1.291,0.161 1.85,0.481c0.633,0.367 1.063,0.89 1.291,1.565l-1.417,0.81c-0.215,-0.323 -0.413,-0.557 -0.587,-0.705c-0.334,-0.277 -0.717,-0.415 -1.155,-0.415c-0.37,0 -0.687,0.1 -0.947,0.293c-0.361,0.276 -0.544,0.697 -0.544,1.256c0,0.347 0.114,0.679 0.34,1c0.2,0.277 0.412,0.47 0.64,0.583l1.834,0.95c0.613,0.346 1.052,0.665 1.324,0.965c0.578,0.63 0.871,1.439 0.871,2.428" style="fill:#636466;fill-rule:nonzero;"/><path d="M88.564,11.942l0.146,0c0.169,0 0.307,-0.057 0.307,-0.194c0,-0.121 -0.089,-0.202 -0.283,-0.202c-0.081,0 -0.138,0.008 -0.17,0.016l0,0.38ZM88.556,12.686l-0.307,0l0,-1.326c0.121,-0.016 0.291,-0.041 0.509,-0.041c0.25,0 0.364,0.041 0.453,0.105c0.081,0.057 0.137,0.154 0.137,0.283c0,0.163 -0.121,0.268 -0.275,0.316l0,0.016c0.13,0.041 0.195,0.146 0.235,0.324c0.04,0.202 0.073,0.275 0.097,0.323l-0.323,0c-0.041,-0.048 -0.065,-0.161 -0.105,-0.323c-0.025,-0.138 -0.106,-0.203 -0.275,-0.203l-0.146,0l0,0.526ZM87.739,11.999c0,0.59 0.445,1.059 1.036,1.059c0.573,0.008 1.01,-0.469 1.01,-1.051c0,-0.59 -0.437,-1.068 -1.027,-1.068c-0.574,0 -1.019,0.478 -1.019,1.06M90.125,11.999c0,0.744 -0.599,1.334 -1.359,1.334c-0.76,0 -1.367,-0.59 -1.367,-1.334c0,-0.745 0.607,-1.327 1.376,-1.327c0.751,0 1.35,0.582 1.35,1.327" style="fill:#636466;fill-rule:nonzero;"/></g></svg>